<?xml version="1.0" encoding="UTF-8" standalone="no"?>
<!-- Created with Inkscape (http://www.inkscape.org/) -->

<svg
   xmlns:dc="http://purl.org/dc/elements/1.1/"
   xmlns:cc="http://creativecommons.org/ns#"
   xmlns:rdf="http://www.w3.org/1999/02/22-rdf-syntax-ns#"
   xmlns:svg="http://www.w3.org/2000/svg"
   xmlns="http://www.w3.org/2000/svg"
   xmlns:sodipodi="http://sodipodi.sourceforge.net/DTD/sodipodi-0.dtd"
   xmlns:inkscape="http://www.inkscape.org/namespaces/inkscape"
   inkscape:version="0.92.4 (unknown)"
   sodipodi:docname="corona_egg1.svg"
   viewBox="0 0 3000 800"
   height="800"
   width="3000"
   id="svg585"
   version="1.1">
  <sodipodi:namedview
     pagecolor="#ffffff"
     bordercolor="#666666"
     borderopacity="1"
     objecttolerance="10"
     gridtolerance="10"
     guidetolerance="10"
     inkscape:pageopacity="0"
     inkscape:pageshadow="2"
     inkscape:window-width="1853"
     inkscape:window-height="1025"
     id="namedview587"
     showgrid="false"
     inkscape:zoom="0.5"
     inkscape:cx="1236"
     inkscape:cy="449.20548"
     inkscape:window-x="67"
     inkscape:window-y="27"
     inkscape:window-maximized="1"
     inkscape:current-layer="g838" />
  <defs
     id="defs589" />
  <eggbot
     totaldeltay="0"
     totaldeltax="0"
     lastpathnc="0"
     lastpath="0"
     node="0"
     layer="0" />
  <metadata
     id="metadata591">
    <rdf:RDF>
      <cc:Work
         rdf:about="">
        <dc:format>image/svg+xml</dc:format>
        <dc:type
           rdf:resource="http://purl.org/dc/dcmitype/StillImage" />
        <dc:title />
      </cc:Work>
    </rdf:RDF>
  </metadata>
  <g
     transform="matrix(1.6091545,0,0,1,798.8854,40.07673)"
     id="g833"
     style="display:inline;stroke:#fb0051;stroke-opacity:1"
     inkscape:groupmode="layer"
     inkscape:label="3">
    <path
       id="path831"
       style="display:inline;fill:none;stroke:#fb0051;stroke-width:1px;stroke-opacity:1"
       d="m 93.701372,379.44118 0.313357,-0.31335 c 0.417809,-0.41781 3.631557,0.61108 3.213747,1.02889 l -1.38501,1.38501 c -2.12132,2.12132 -1.807205,6.04985 0.314115,3.92853 l 3.007009,-3.00701 c 2.12132,-2.12132 5.33507,-1.09243 3.21375,1.02889 l -5.509031,5.50903 c -2.12132,2.12132 -1.269933,5.51257 0.851388,3.39125 l 7.871383,-7.87139 c 2.12132,-2.12132 5.33507,-1.09242 3.21375,1.0289 l -9.560542,9.56054 c -2.12132,2.12132 1.137132,3.10551 3.258462,0.98419 l 9.51583,-9.51584 c 2.12132,-2.12132 5.33507,-1.09242 3.21375,1.0289 l -9.47113,9.47112 c -2.12132,2.12132 1.13714,3.1055 3.25846,0.98418 l 9.42641,-9.42641 c 2.12132,-2.12132 5.33507,-1.09243 3.21375,1.02889 l -9.3817,9.38171 c -2.12132,2.12132 1.13713,3.1055 3.25845,0.98418 l 9.337,-9.33699 c 2.12132,-2.12132 5.33506,-1.09243 3.21374,1.02889 l -9.29228,9.29229 c -2.12132,2.12132 1.13714,3.1055 3.25846,0.98418 l 9.24757,-9.24757 c 2.12132,-2.12132 5.33507,-1.09243 3.21375,1.02889 l -9.20287,9.20286 c -2.12132,2.12132 1.13714,3.10551 3.25846,0.98419 l 9.15815,-9.15816 c 2.12132,-2.12132 5.33507,-1.09242 3.21375,1.0289 l -9.11344,9.11344 c -2.12132,2.12132 1.13713,3.10551 3.25845,0.98419 l 9.06874,-9.06874 c 2.12132,-2.12132 5.33507,-1.09243 3.21375,1.0289 l -9.02403,9.02402 c -2.12132,2.12132 1.13714,3.1055 3.25846,0.98418 l 8.97931,-8.97931 c 2.12132,-2.12132 5.33507,-1.09243 3.21375,1.02889 l -8.9346,8.93461 c -2.12132,2.12132 1.13713,3.1055 3.25845,0.98418 l 8.8899,-8.88989 c 2.12132,-2.12132 5.33506,-1.09243 3.21374,1.02889 l -8.84518,8.84519 c -2.12132,2.12132 1.13714,3.1055 3.25846,0.98418 l 8.80047,-8.80047 c 2.12132,-2.12132 5.33507,-1.09243 3.21375,1.02889 l -8.75577,8.75576 c -2.12132,2.12132 1.13714,3.10551 3.25846,0.98419 l 8.71105,-8.71106 c 2.12132,-2.12132 5.33507,-1.09242 3.21375,1.0289 l -8.66634,8.66634 c -2.12132,2.12132 1.13713,3.10551 3.25845,0.98419 l 8.62164,-8.62164 c 2.12132,-2.12132 5.33507,-1.09243 3.21375,1.0289 l -8.57693,8.57692 c -2.12132,2.12132 1.13714,3.1055 3.25846,0.98419 l 8.53221,-8.53222 c 2.12132,-2.12132 5.33507,-1.09243 3.21375,1.02889 l -8.4875,8.48751 c -2.12132,2.12132 1.13713,3.1055 3.25845,0.98418 l 8.4428,-8.44279 c 2.12132,-2.12132 5.33506,-1.09243 3.21374,1.02889 l -8.39808,8.39809 c -2.12132,2.12132 1.13714,3.1055 3.25846,0.98418 l 8.35337,-8.35337 c 2.12132,-2.12132 5.33507,-1.09243 3.21375,1.02889 l -8.30867,8.30866 c -2.12132,2.12132 1.13714,3.10551 3.25846,0.98419 l 7.937,-7.93701 c 2.12132,-2.12132 6.15539,-1.91274 4.03407,0.20858 l -8.71261,8.71261 c -2.12132,2.12132 1.13713,3.10551 3.25845,0.98419 l 15.76502,-15.76502 c 2.12132,-2.12132 7.24645,-3.00381 5.12513,-0.88249 l -17.63169,17.63169 c -2.12132,2.12132 1.13714,3.1055 3.25846,0.98418 l 18.10158,-18.10158 c 2.12132,-2.12132 5.84968,-1.60703 3.72836,0.51429 l -19.51332,19.51332 c -2.12132,2.12132 -2.12132,6.36396 0,4.24264 l 23.2444,-23.2444 c 2.12132,-2.12132 5.8657,-1.62306 3.74438,0.49826 l -26.98878,26.98878 c -2.12132,2.12132 -2.12132,6.36396 0,4.24264 l 30.73316,-30.73316 c 2.12132,-2.12132 5.8657,-1.62307 3.74438,0.49825 l -34.47754,34.47755 c -2.12132,2.12132 -2.12132,6.36396 0,4.24264 l 38.2349,-38.2349 c 2.12132,-2.12132 5.88369,-1.64105 3.76237,0.48027 l -41.99727,41.99727 c -2.12132,2.12132 -2.12132,6.36396 0,4.24264 l 45.75964,-45.75964 c 2.12132,-2.12132 5.88942,-1.64678 3.7681,0.47454 l -49.52774,49.52774 c -2.12132,2.12132 -2.12132,6.36396 0,4.24264 l 53.31011,-53.31011 c 2.12132,-2.12132 5.90369,-1.66104 3.78237,0.46028 l -57.09248,57.09247 c -2.12132,2.12132 -2.12132,6.36396 0,4.24264 L 269.9629,415.3117 c 2.12132,-2.12132 5.92575,-1.6831 3.80443,0.43822 l -64.67634,64.67634 c -2.12132,2.12132 -2.12132,6.36396 0,4.24264 l 68.48076,-68.48077 c 2.12132,-2.12132 5.92575,-1.6831 3.80443,0.43822 l -72.28519,72.28519 c -2.12132,2.12132 -2.12132,6.36396 0,4.24264 l 76.10086,-76.10086 c 2.12132,-2.12132 5.94992,-1.70728 3.8286,0.41404 l -79.92946,79.92946 c -2.12132,2.12132 -2.12132,6.36396 0,4.24264 l 83.75806,-83.75806 c 2.12132,-2.12132 5.95208,-1.70944 3.83076,0.41188 l -87.58882,87.58882 c -2.12132,2.12132 -2.12132,6.36396 0,4.24264 l 91.44379,-91.44379 c 2.12132,-2.12132 5.97629,-1.73365 3.85497,0.38767 l -95.29876,95.29876 c -2.12132,2.12132 -2.12132,6.36396 0,4.24264 l 99.15373,-99.15372 c 2.12132,-2.12132 5.99685,-1.75422 3.87553,0.3671 L 209.09099,522.85266 c -2.12132,2.12132 -2.12132,6.36396 0,4.24264 L 316.00385,420.18245 c 2.12132,-2.12133 6.00491,-1.76228 3.88359,0.35904 L 207.5,532.92894 m -33.04982,11.83659 -0.76247,0.76248 c -1.01663,1.01663 1.38367,2.85897 2.4003,1.84234 l 2.72854,-2.72854 c 2.12132,-2.12132 8.07867,-3.83603 5.95735,-1.71471 l -5.50701,5.50701 c -2.12132,2.12132 0.23855,4.00409 2.35987,1.88277 l 9.10449,-9.10449 c 2.12132,-2.12132 8.07867,-3.83603 5.95735,-1.71471 l -12.64495,12.64494 c -2.12132,2.12132 0.43754,3.80511 2.55886,1.68379 l 17.63443,-17.63443 m -16.4238,20.66644 136.00039,-136.00039 c 2.12132,-2.12132 6.12176,-1.87912 4.00044,0.2422 L 194.42109,554.49311 c -2.12132,2.12132 4.57734,-0.3347 6.69866,-2.45602 L 331.86267,421.29417 c 2.12132,-2.12132 6.20901,-1.96636 4.08769,0.15496 L 206.51751,550.88197 c -2.12132,2.12132 2.12476,2.11788 4.24608,-0.003 L 340.07427,421.56785 c 2.12132,-2.12132 6.28179,-2.03915 4.16047,0.0822 L 213.42436,552.4604 c -2.12132,2.12132 0.6633,3.57935 2.78462,1.45803 L 348.432,421.6954 c 2.12132,-2.12132 6.36676,-2.12411 4.24544,-0.003 L 219.20963,555.16042 c -2.12132,2.12132 1.17679,3.06584 3.29811,0.94453 L 356.95795,421.65473 c 2.12132,-2.12132 6.43739,-2.19475 4.31607,-0.0734 l -135.1594,135.1594 c -2.12132,2.12132 1.43937,2.80328 3.56069,0.68196 L 365.6254,421.47257 c 2.12132,-2.12132 6.50764,-2.265 4.38632,-0.14368 l -136.81551,136.8155 c -2.12132,2.12132 1.23443,3.00821 3.35575,0.88689 L 374.4318,421.15145 c 2.12132,-2.12132 6.60267,-2.36003 4.48135,-0.23871 L 240.27954,559.54635 c -2.12132,2.12132 1.5966,2.64604 3.71792,0.52472 L 383.39451,420.67402 c 2.12132,-2.12132 6.64925,-2.40661 4.52793,-0.28529 L 247.71539,560.59578 c -2.12132,2.12132 1.59661,2.64603 3.71793,0.52471 L 392.47649,420.07732 c 2.12132,-2.12132 6.69819,-2.45555 4.57687,-0.33423 L 255.15125,561.6452 c -2.12132,2.12132 1.59661,2.64603 3.71793,0.52471 L 401.67164,419.36746 c 2.12132,-2.12132 6.74533,-2.5027 4.62401,-0.38138 L 262.60117,562.68056 c -2.12132,2.12132 1.61372,2.62893 3.73504,0.50761 L 410.96883,418.55554 c 2.12132,-2.12132 6.78928,-2.54663 4.66796,-0.42531 L 270.07124,563.69578 c -2.12132,2.12132 1.63475,2.60788 3.75607,0.48656 L 420.3548,417.65485 c 2.12132,-2.12132 6.83934,-2.59669 4.71802,-0.47537 L 277.59109,564.66121 c -2.12132,2.12132 1.64245,2.60019 3.76377,0.47887 L 429.81427,416.68067 c 2.12132,-2.12132 6.87345,-2.63081 4.75213,-0.50949 l -149.4196,149.4196 c -2.12132,2.12132 1.68479,2.55785 3.80611,0.43653 L 439.33019,415.65004 c 2.12132,-2.12132 6.89632,-2.65369 4.775,-0.53236 L 292.75902,566.46384 c -2.12132,2.12132 1.71039,2.53225 3.83171,0.41093 L 448.88398,414.58152 c 2.12132,-2.12132 6.90727,-2.66463 4.78595,-0.54331 l -153.2324,153.2324 c -2.12132,2.12132 1.76161,2.48103 3.88293,0.35971 L 458.45589,413.4949 c 2.12132,-2.12132 6.90727,-2.66464 4.78595,-0.54332 l -155.0197,155.0197 c -2.12132,2.12132 1.75311,2.48954 3.87443,0.36822 L 468.02725,412.40881 c 2.12132,-2.12132 6.89449,-2.65184 4.77317,-0.53052 L 316.09806,568.58065 c -2.12132,2.12132 1.86393,2.3787 3.98525,0.25738 L 477.57623,411.34512 c 2.12132,-2.12132 6.87021,-2.62758 4.74889,-0.50626 L 324.09378,569.07021 c -2.12132,2.12132 1.92673,2.31591 4.04805,0.19459 L 487.07402,410.33261 c 2.12132,-2.12132 7.35598,-3.11334 5.23466,-0.99202 l -160.2466,160.2466 c -2.12132,2.12132 1.78351,2.45913 3.90483,0.33781 L 496.23092,409.66099 c 2.12132,-2.12132 5.42007,-1.17743 3.29875,0.94389 l -159.6081,159.6081 c -2.12132,2.12132 1.8897,2.35295 4.01102,0.23163 L 502.38443,411.99277 c 2.12132,-2.12132 4.71144,-0.46881 2.59012,1.65251 L 347.9813,570.63853 c -2.12132,2.12132 1.96821,2.27443 4.08953,0.15311 L 507.43666,415.42581 c 2.12132,-2.12132 6.21017,-1.96752 4.08884,0.1538 L 356.22295,570.88216 c -2.12132,2.12132 2.06849,2.17416 4.18981,0.0528 L 517.7246,413.62316 c 2.12132,-2.12132 8.32041,-4.07777 6.19909,-1.95645 L 364.43822,571.15217 c -2.12132,2.12132 2.3567,1.88594 4.47802,-0.23538 L 530.12278,409.71025 c 2.12132,-2.12132 8.32041,-4.07777 6.19909,-1.95645 L 373.23945,570.83623 c -2.12132,2.12132 2.23753,2.00511 4.35885,-0.11621 L 510.48592,437.83239 c 2.12132,-2.12132 2.07359,2.16906 -0.0477,4.29038 L 381.83087,570.73008 c -2.12132,2.12132 2.47464,1.76801 4.59596,-0.35331 L 510.39046,446.41314 c 2.12132,-2.12132 2.07358,2.16906 -0.0477,4.29038 L 390.90139,570.14485 c -2.12132,2.12132 2.38304,1.8596 4.50436,-0.26172 L 510.29499,454.99389 c 2.12132,-2.12132 2.07359,2.16905 -0.0477,4.29037 L 399.94348,569.58804 c -2.12132,2.12132 2.45362,1.78902 4.57494,-0.3323 l 105.6811,-105.6811 c 2.12132,-2.12132 2.07359,2.16905 -0.0477,4.29037 L 409.09335,568.92345 c -2.12132,2.12132 2.49605,1.74659 4.61737,-0.37473 l 96.39334,-96.39334 c 2.12132,-2.12132 2.07358,2.16906 -0.0477,4.29038 l -91.71527,91.71527 c -2.12132,2.12132 2.55926,1.68338 4.68058,-0.43794 l 86.98696,-86.98696 c 2.12132,-2.12132 2.07359,2.16906 -0.0477,4.29038 l -82.11733,82.11733 c -2.12132,2.12132 2.70057,1.54206 4.82189,-0.57926 l 77.24771,-77.2477 c 2.12132,-2.12132 2.07358,2.16905 -0.0477,4.29037 l -72.35294,72.35294 c -2.12132,2.12132 2.72502,1.51762 4.84634,-0.6037 l 67.45887,-67.45886 c 2.12132,-2.12132 2.07359,2.16905 -0.0477,4.29037 l -62.5292,62.5292 c -2.12132,2.12132 2.7696,1.47304 4.89092,-0.64828 l 57.59054,-57.59054 c 2.12132,-2.12132 2.07359,2.16905 -0.0477,4.29037 l -52.61303,52.61303 c -2.12132,2.12132 2.83559,1.40706 4.95691,-0.71427 l 47.60839,-47.60839 c 2.12132,-2.12132 2.07358,2.16906 -0.0477,4.29038 l -42.57739,42.57739 c -2.12132,2.12132 2.91699,1.32565 5.03831,-0.79567 l 37.49135,-37.49135 c 2.12132,-2.12132 2.07359,2.16905 -0.0477,4.29037 l -32.35539,32.35539 c -2.12132,2.12132 2.63874,1.6039 4.76007,-0.51742 l 27.54759,-27.54759 c 2.12132,-2.12132 2.94609,1.29655 0.82477,3.41787 l -23.05693,23.05692 c -2.12132,2.12132 3.2042,1.03844 5.32552,-1.08288 l 20.9134,-20.9134 c 2.12132,-2.12132 5.30332,-1.06067 3.182,1.06065 l -18.75883,18.75883 c -2.12132,2.12132 3.22744,1.01519 5.34876,-1.10613 l 16.59206,-16.59205 c 2.12132,-2.12132 5.30332,-1.06068 3.182,1.06064 l -9.769,9.769 c -2.12132,2.12132 2.05562,2.18701 4.17694,0.0657 l 8.77405,-8.77404 c 2.12132,-2.12132 5.30332,-1.06068 3.18199,1.06064 l -8.73269,8.7327 c -2.12132,2.12132 1.02767,3.21497 3.14899,1.09365 l 8.7657,-8.7657 c 2.12132,-2.12132 5.30331,-1.06067 3.18199,1.06065 l -8.74517,8.74516 c -2.12132,2.12132 1.23018,3.01247 3.3515,0.89115 l 8.57567,-8.57567 c 2.12132,-2.12132 5.30331,-1.06067 3.18199,1.06065 l -8.73185,8.73185 c -2.12132,2.12132 0.94717,3.29547 3.06849,1.17415 l 9.00956,-9.00955 c 2.12132,-2.12132 5.56478,-1.32215 3.44346,0.79917 l -10.44836,10.44836 m 5.69015,-154.18257 -22.77199,22.77198 c -2.12132,2.12132 4.01454,0.2281 6.13586,-1.89322 l 21.24423,-21.24422 c 2.12132,-2.12132 8.32041,-4.07778 6.19909,-1.95646 L 533.6117,423.1919 c -2.12132,2.12132 4.01454,0.2281 6.13586,-1.89322 l 21.37068,-21.37069 c 2.12132,-2.12132 8.32041,-4.07777 6.19909,-1.95645 l -21.43391,21.43391 c -2.12132,2.12132 4.01454,0.2281 6.13586,-1.89322 l 21.49715,-21.49714 c 2.12132,-2.12132 8.32041,-4.07777 6.19909,-1.95645 l -21.56038,21.56037 c -2.12132,2.12132 4.01455,0.2281 6.13587,-1.89322 l 21.6236,-21.62361 c 2.12132,-2.12132 8.32041,-4.07777 6.19909,-1.95645 l -21.68683,21.68684 c -2.12132,2.12132 4.01454,0.22809 6.13586,-1.89323 l 21.75006,-21.75006 c 2.12132,-2.12132 8.32042,-4.07777 6.1991,-1.95645 l -21.8133,21.81329 c -2.12132,2.12132 4.01454,0.2281 6.13586,-1.89322 l 21.87653,-21.87652 c 2.12132,-2.12132 8.32041,-4.07778 6.19909,-1.95646 l -21.93975,21.93976 c -2.12132,2.12132 4.01454,0.2281 6.13586,-1.89322 l 22.00298,-22.00299 c 2.12132,-2.12132 6.73761,-2.49497 4.61629,-0.37365 l -20.48341,20.48341 c -2.12132,2.12132 4.01454,0.2281 6.13586,-1.89322 l 14.01093,-14.01093 c 2.12132,-2.12132 1.17949,3.06315 -0.94183,5.18447 l -6.97848,6.97849 c -2.06099,2.06099 4.07487,0.16777 6.13586,-1.89322 l 1.54574,-1.54575"
       inkscape:connector-curvature="0" />
  </g>
  <g
     transform="matrix(1.6091545,0,0,1,798.8854,40.07673)"
     style="display:inline"
     id="g838"
     inkscape:groupmode="layer"
     inkscape:label="2">
    <path
       id="path836"
       style="display:inline;fill:none;stroke:#000000;stroke-width:1"
       d="m 190.04106,228.84028 -4.99465,4.99465 m -7.40881,11.65146 23.9382,-23.93821 m -28.11322,32.35587 34.78132,-34.78132 c 2.12132,-2.12132 7.97776,-3.73513 5.85644,-1.61381 l -41.22585,41.22586 c -2.12132,2.12132 -2.9676,7.21024 -0.84628,5.08892 l 47.7366,-47.7366 c 2.12132,-2.12132 7.09602,-2.85338 4.9747,-0.73206 l -53.31607,53.31606 c -2.12132,2.12133 -2.41787,6.66052 -0.29655,4.5392 l 58.49454,-58.49454 c 2.12132,-2.12132 6.12216,-1.87953 4.00084,0.24179 l -62.56262,62.56262 c -2.12132,2.12132 -1.96522,6.20787 0.1561,4.08654 l 66.39239,-66.39238 c 2.12132,-2.12132 5.88418,-1.64155 3.76286,0.47977 l -69.81185,69.81186 c -2.12132,2.12132 -1.56417,5.80681 0.55715,3.68549 l 72.82527,-72.82527 c 2.12132,-2.12132 5.55746,-1.31482 3.43614,0.8065 l -75.43886,75.43886 c -2.12132,2.12132 -1.06613,5.30877 1.05519,3.18745 l 77.58141,-77.58141 c 2.12132,-2.12132 5.22669,-0.98404 3.10537,1.13728 l -79.52126,79.52125 c -2.12132,2.12132 -0.82723,5.06987 1.29409,2.94855 l 81.20621,-81.20621 c 2.12132,-2.12132 4.97239,-0.72975 2.85107,1.39157 l -16.45144,16.45145 c -2.12132,2.12132 3.65007,0.59256 5.77139,-1.52876 l 13.41886,-13.41886 c 2.12132,-2.12132 4.75594,-0.5133 2.63462,1.60802 l -11.66247,11.66247 c -2.12132,2.12132 1.21503,3.02762 3.33635,0.9063 l 10.84599,-10.84599 c 2.12132,-2.12132 4.5446,-0.30196 2.42328,1.81936 l -10.39288,10.39288 c -2.12132,2.12132 0.33941,3.90323 2.46073,1.78191 l 10.25307,-10.25307 c 2.12132,-2.12132 4.34252,-0.0999 2.2212,2.02144 l -10.33841,10.3384 c -2.12132,2.12132 -0.34586,4.5885 1.77546,2.46718 l 10.68901,-10.689 c 2.12132,-2.12132 4.14824,0.0944 2.02692,2.21572 l -11.32844,11.32844 c -2.12132,2.12132 -1.17657,5.41921 0.94475,3.29789 l 12.30677,-12.30678 c 2.12133,-2.12132 3.94505,0.29759 1.82373,2.41891 l -13.88481,13.88482 c -2.12132,2.12132 -3.62408,7.86672 -1.50276,5.7454 l 17.10996,-17.10996 c 2.12132,-2.12132 3.73986,0.50278 1.61854,2.6241 l -84.09455,84.09455 c -2.12132,2.12132 -4.73058,0.48794 -2.60926,-1.63338 l 54.81604,-54.81604 c 2.12132,-2.12132 -3.51483,-0.72781 -5.63615,1.39351 l -51.68318,51.68318 c -2.12132,2.12132 -4.52268,0.28003 -2.40136,-1.84129 l 49.99995,-49.99994 c 2.12132,-2.12132 -1.16431,-3.07833 -3.28563,-0.95701 l -49.01112,49.01112 c -2.12132,2.12132 -4.32633,0.0837 -2.20501,-2.03763 l 48.39751,-48.39751 c 2.12132,-2.12132 -0.31564,-3.92701 -2.43696,-1.80569 L 188.40279,319.574 c -2.12132,2.12132 -4.13003,-0.1126 -2.00871,-2.23392 l 47.97841,-47.97841 c 2.12132,-2.12132 0.38369,-4.62633 -1.73763,-2.50501 l -48.14596,48.14595 c -2.12132,2.12132 -3.93181,-0.31082 -1.81049,-2.43214 l 48.65882,-48.65883 c 2.12132,-2.12132 1.30072,-5.54335 -0.8206,-3.42203 l -49.55047,49.55046 c -2.12132,2.12132 -3.72868,-0.51396 -1.60736,-2.63528 l 50.82482,-50.82482 c 2.12132,-2.12132 3.92874,-8.17137 1.80741,-6.05005 l -55.73678,55.73678 m 113.45874,-58.30441 -84.47474,84.47474 c -2.12132,2.12132 0.71486,3.52778 2.83618,1.40646 l 81.44861,-81.4486 c 2.12132,-2.12132 3.38149,0.86114 1.26017,2.98246 l -79.74741,79.74742 c -2.12132,2.12132 0.97075,3.27188 3.09207,1.15056 l 77.79795,-77.79794 c 2.12132,-2.12132 3.13383,1.10881 1.01251,3.23013 l -75.58104,75.58104 c -2.12132,2.12132 1.28048,2.96216 3.4018,0.84084 l 73.0281,-73.0281 c 2.12132,-2.12132 2.81149,1.43115 0.69017,3.55247 l -70.12898,70.12898 c -2.12132,2.12132 1.67593,2.56671 3.79725,0.44539 l 66.8559,-66.8559 c 2.12132,-2.12132 2.39425,1.84838 0.27294,3.96971 l -63.05909,63.05908 c -2.12132,2.12132 2.17499,2.06765 4.29631,-0.0537 l 59.1029,-59.1029 c 2.12132,-2.12132 1.58456,2.65808 -0.53676,4.7794 l -53.9548,53.9548 c -2.12132,2.12132 2.81024,1.43241 4.93156,-0.68891 l 48.3749,-48.37491 c 2.12132,-2.12132 0.96856,3.27408 -1.15276,5.3954 l -41.78681,41.78681 c -2.12132,2.12132 3.99076,0.25189 6.11208,-1.86943 l 34.43666,-34.43667 c 2.12132,-2.12132 -1.01288,5.25553 -3.1342,7.37685 l -26.58366,26.58365 m 12.77562,-8.53298 8.28507,-8.28507 M 456.48181,221.20059 432.6542,245.0282 m -3.97457,8.21721 34.43007,-34.43007 c 2.12132,-2.12132 7.77713,-3.53449 5.65581,-1.41317 l -40.78625,40.78625 c -2.12132,2.12132 -3.0692,7.31184 -0.94788,5.19052 l 47.2905,-47.2905 c 2.12132,-2.12132 6.98054,-2.7379 4.85922,-0.61658 l -52.93971,52.93971 c -2.12132,2.12132 -2.51896,6.7616 -0.39764,4.64028 l 57.84611,-57.84611 c 2.12132,-2.12132 6.37952,-2.13688 4.2582,-0.0156 l -62.14198,62.14198 c -2.12132,2.12132 -1.92931,6.17195 0.19201,4.05063 l 25.54528,-25.54528 c 2.12132,-2.12132 2.2846,1.95804 0.16328,4.07936 l -25.2427,25.2427 c -2.12132,2.12132 -1.4714,5.71404 0.64992,3.59272 l 25.47744,-25.47744 c 2.12132,-2.12132 3.40951,0.83314 1.28819,2.95446 l -25.94958,25.94957 c -2.12132,2.12132 -1.15368,5.39632 0.96764,3.275 L 455.5016,268.8498 c 2.12132,-2.12132 4.11792,0.12472 1.9966,2.24605 l -27.49323,27.49323 c -2.12132,2.12132 -0.89276,5.1354 1.22856,3.01408 l 28.60411,-28.60412 c 2.12132,-2.12132 4.84274,-0.60009 2.72142,1.52123 l -29.95741,29.9574 c -2.12132,2.12132 -0.63917,4.88181 1.48215,2.76049 l 31.66412,-31.66411 c 2.12132,-2.12132 5.96168,-1.71904 3.84036,0.40228 l -33.91294,33.91294 c -2.12132,2.12132 -0.42404,4.66667 1.69729,2.54535 l 39.4428,-39.44281 m -7.75579,-34.67061 22.94171,-22.94171 c 2.12132,-2.12132 5.98809,-1.74545 3.86677,0.37587 l -20.83875,20.83875 c -2.12132,2.12132 1.30308,2.93956 3.42441,0.81824 l 21.06379,-21.06379 c 2.12132,-2.12132 5.57856,-1.33593 3.45724,0.78539 L 481.45083,238.658 c -2.12132,2.12132 0.43607,3.80658 2.55739,1.68526 l 22.22497,-22.22498 c 2.12132,-2.12132 5.2578,-1.01515 3.13648,1.10617 l -23.15776,23.15776 c -2.12132,2.12132 -0.25395,4.49659 1.86737,2.37527 l 24.31644,-24.31644 c 2.12132,-2.12132 5.0214,-0.77876 2.90008,1.34256 l -25.69178,25.69178 c -2.12132,2.12132 -1.00706,5.24969 1.11426,3.12837 l 27.323,-27.323 c 2.12132,-2.12132 4.73867,-0.49603 2.61735,1.6253 L 491.17368,254.391 c -2.12132,2.12132 -3.33264,7.57528 -1.21132,5.45396 l 33.18502,-33.18502 c 2.12132,-2.12132 4.49386,-0.25122 2.37254,1.8701 l -86.34699,86.34699 c -2.12132,2.12132 -0.21994,4.46258 1.90138,2.34126 l 86.72738,-86.72738 c 2.12132,-2.12132 4.3237,-0.0811 2.20238,2.04026 l -86.92846,86.92847 c -2.12132,2.12132 -0.0206,4.26323 2.10073,2.14191 l 86.96704,-86.96704 c 2.12132,-2.12132 4.21457,0.0281 2.09325,2.14939 l -86.8599,86.8599 c -2.12132,2.12132 0.17963,4.063 2.30095,1.94168 L 536.25716,239.006 c 2.12132,-2.12132 4.03286,0.20978 1.91154,2.3311 l -86.08789,86.08789 c -2.12132,2.12132 0.38634,3.85631 2.50766,1.73499 l 85.34216,-85.34216 c 2.12132,-2.12132 3.71096,0.53168 1.58964,2.653 l -84.31649,84.31649 c -2.12132,2.12132 0.60564,3.637 2.72696,1.51568 l 83.05683,-83.05683 c 2.12132,-2.12132 3.49797,0.74467 1.37665,2.86599 l -81.5899,81.5899 c -2.12132,2.12132 0.84493,3.39771 2.96625,1.27639 l 79.87674,-79.87673 c 2.12132,-2.12132 3.26849,0.97414 1.14717,3.09546 l -77.92767,77.92767 c -2.12132,2.12132 1.11371,3.12893 3.23503,1.00761 l 75.69762,-75.69761 c 2.12132,-2.12132 3.0019,1.24073 0.88058,3.36205 l -73.28972,73.28972 c -2.12132,2.12132 1.60561,2.63703 3.72693,0.51571 l 70.26293,-70.26293 c 2.12132,-2.12132 2.6465,1.59615 0.52518,3.71747 l -66.97938,66.97937 c -2.12132,2.12132 1.86121,2.38143 3.98253,0.26011 l 63.31689,-63.31689 c 2.12132,-2.12132 2.19761,2.04503 0.0763,4.16635 l -59.18908,59.18909 c -2.12132,2.12132 2.36198,1.88065 4.4833,-0.24067 l 54.48751,-54.48751 c 2.12132,-2.12132 1.53964,2.70301 -0.58168,4.82433 l -49.07256,49.07256 c -2.12132,2.12132 2.68229,1.56034 4.80361,-0.56098 l 43.14485,-43.14485 c 2.12132,-2.12132 0.25333,3.98932 -1.86799,6.11064 l -35.22751,35.22751 c -2.12132,2.12132 5.41359,-1.17095 7.53491,-3.29227 l 26.05589,-26.05589 m -17.2148,21.45744 12.60425,-12.60426"
       inkscape:connector-curvature="0" />
  </g>
  <g
     transform="matrix(1.6091545,0,0,1,798.8854,40.07673)"
     style="display:inline"
     id="g843"
     inkscape:groupmode="layer"
     inkscape:label="1">
    <path
       id="path841"
       style="display:inline;fill:none;stroke:#00fb00;stroke-width:1;stroke-opacity:1"
       d="M 124.93761,78.963949 103.2568,100.64475 c -2.12132,2.12132 -2.65259,6.89524 -0.53127,4.77391 l 26.97753,-26.977523 c 2.12132,-2.12132 5.42844,-1.185805 3.30712,0.935516 L 103.959,108.42784 c -2.12132,2.12132 -0.0589,4.3015 2.06246,2.18018 l 29.18503,-29.185037 c 2.12132,-2.12132 3.73597,0.506673 1.61465,2.627993 l -28.08923,28.089234 c -2.12132,2.12132 1.10504,3.13759 3.22637,1.01627 l 25.82727,-25.827272 c 2.12132,-2.12132 2.69012,1.552523 0.5688,3.673843 l -22.82092,22.820919 c -2.12132,2.12132 1.67178,2.57086 3.7931,0.44954 l 19.41182,-19.411818 c 2.12132,-2.12132 2.46286,1.779775 0.34154,3.901095 l -15.91557,15.915573 c -2.12132,2.12132 1.47342,2.76922 3.59474,0.6479 l 12.89381,-12.89381 c 2.12132,-2.12132 2.82761,1.41503 0.70629,3.53635 l -10.44574,10.44574 c -2.12132,2.12132 0.55132,3.69132 2.67264,1.57 l 8.76563,-8.76563 c 2.12132,-2.12132 3.37818,0.86446 1.25686,2.98578 l -7.68638,7.68638 c -2.12132,2.12132 0.0445,4.19811 2.16586,2.07679 l 7.10162,-7.10163 c 2.12132,-2.12132 4.02732,0.21532 1.906,2.33664 l -6.92134,6.92134 c -2.12132,2.12132 -0.0589,4.30151 2.06246,2.18019 l 9.23917,-9.23917 M 7.156522,251.89936 l 8.087075,-8.08707 c 2.12132,-2.12132 5.041338,-0.7987 2.920018,1.32262 L 5.981879,257.31664 c -2.12132,2.12133 -3.595422,7.83807 -1.474101,5.71675 l 16.055107,-16.05511 c 2.12132,-2.12132 4.339221,-0.0966 2.2179,2.02474 L 3.595468,268.18834 c -2.12132,2.12132 -2.753944,6.99658 -0.632624,4.87526 l 21.900417,-21.90042 c 2.12132,-2.12132 4.03703,0.20562 1.915709,2.32694 L 2.901149,277.36794 c -2.12132,2.12132 -1.574262,5.8169 0.547058,3.69558 l 25.041707,-25.04171 c 2.12132,-2.12132 4.283942,-0.0413 2.162622,2.08002 l -25.695602,25.6956 c -2.12132,2.12132 0.066603,4.17604 2.187923,2.05472 l 41.601778,-41.60178 c 2.12132,-2.12132 6.813847,-2.5712 4.692526,-0.44988 l -42.418789,42.41879 c -2.12132,2.12132 3.141723,1.10091 5.263044,-1.02041 l 40.559035,-40.55903 c 2.12132,-2.12132 5.052839,-0.8102 2.931518,1.31112 l -37.156966,37.15697 c -2.12132,2.12132 5.566329,-1.32369 7.68765,-3.44501 l 32.008632,-32.00864 c 2.12132,-2.12132 4.256473,-0.0138 2.135153,2.10749 l -32.780464,32.78047 c -2.12132,2.12132 -0.803914,5.04655 1.317407,2.92523 l 33.3591,-33.3591 c 2.12132,-2.12132 3.944226,0.29842 1.822905,2.41974 l -33.731827,33.73182 c -2.12132,2.12132 -0.398373,4.64102 1.722947,2.5197 L 69.942032,256.9961 c 2.12132,-2.12132 3.854213,0.38843 1.732892,2.50975 l -33.461106,33.4611 c -2.12132,2.12132 0.379905,3.86274 2.501225,1.74142 l 32.651581,-32.65158 c 2.12132,-2.12132 3.826348,0.41629 1.705027,2.53761 l -31.306506,31.30651 c -2.12132,2.12132 1.386979,2.85566 3.508299,0.73434 l 29.524192,-29.52419 c 2.12132,-2.12132 3.898912,0.34372 1.777592,2.46505 l -26.493421,26.49342 c -2.12132,2.12132 4.593842,-0.3512 6.715162,-2.47253 L 80.42094,271.97303 c 2.12132,-2.12132 4.167836,0.0748 2.046516,2.19613 L 65.255511,291.3811 c -2.12132,2.12132 4.089678,0.15297 6.210998,-1.96835 l 15.317812,-15.31782 c 2.12132,-2.12132 8.328507,-4.08586 6.207187,-1.96454 l -18.795397,18.7954 c -2.12132,2.12132 0.719423,3.52321 2.840743,1.40189 l 49.110406,-49.11041 c 2.12132,-2.12132 0.71021,3.53244 -1.41111,5.65376 l -45.031161,45.03116 c -2.12132,2.12132 0.354841,3.8878 2.476162,1.76648 L 123.2953,254.55452 c 2.12132,-2.12132 1.29114,2.9515 -0.83018,5.07282 l -37.915715,37.91571 c -2.12132,2.12132 0.144911,4.09773 2.266232,1.97641 l 35.408473,-35.40847 c 2.12132,-2.12132 2.0194,2.22324 -0.10192,4.34456 l -33.129107,33.12911 c -2.12132,2.12132 -0.0077,4.25035 2.113612,2.12903 l 30.986225,-30.98623 c 2.12132,-2.12132 2.12303,2.11962 0.002,4.24094 l -28.885028,28.88502 c -2.12132,2.12132 -0.01841,4.26105 2.102907,2.13973 L 122.129,281.17666 c 2.12132,-2.12132 2.22538,2.01726 0.10406,4.13858 l -25.524903,25.52491 c -2.12132,2.12132 -2.580835,6.82347 -0.459514,4.70215 l 26.223587,-26.22359 c 2.12132,-2.12132 2.56208,1.68057 0.44076,3.80189 l -27.047778,27.04777 c -2.12132,2.12132 -2.504589,6.74723 -0.383269,4.62591 L 123.62112,296.6551 c 2.12132,-2.12132 2.94958,1.29306 0.82826,3.41438 l -29.306068,29.30607 c -2.12132,2.12132 -2.459951,6.7026 -0.338631,4.58128 l 30.554109,-30.55411 c 2.12132,-2.12132 3.10844,1.1342 0.98712,3.25552 l -31.880149,31.88015 c -2.12132,2.12132 -2.456727,6.69936 -0.335407,4.57804 l 33.283556,-33.28355 c 2.12132,-2.12132 3.26594,0.9767 1.14462,3.09802 l -35.109151,35.10915 c -2.12132,2.12132 -2.251928,6.49457 -0.130608,4.37325 l 36.457359,-36.45736 c 2.12132,-2.12132 3.4088,0.83384 1.28748,2.95516 l -52.998997,52.999 c -2.12132,2.12132 2.112513,2.13013 4.233833,0.009 l 50.119874,-50.11987 c 2.12132,-2.12132 3.53685,0.70579 1.41553,2.82711 l -47.552666,47.55267 c -2.12132,2.12132 2.000442,2.24219 4.121763,0.12087 L 135.3261,327.37653 c 2.12132,-2.12132 3.67546,0.56718 1.55414,2.6885 l -43.457912,43.45791 c -2.12132,2.12133 0.380446,3.8622 2.501767,1.74088 l 42.570895,-42.5709 c 2.12132,-2.12132 3.79568,0.44696 1.67436,2.56828 l -41.234119,41.23412 c -2.12132,2.12132 0.973862,3.26878 3.095179,1.14746 l 39.87216,-39.87215 c 2.12132,-2.12132 3.91287,0.32976 1.79155,2.45108 l -38.52144,38.52145 c -2.12132,2.12132 1.0354,3.20723 3.15673,1.08591 l 37.21432,-37.21432 c 2.12132,-2.12132 4.0285,0.21414 1.90718,2.33546 l -35.93533,35.93533 c -2.12132,2.12132 1.07062,3.17202 3.19194,1.0507 l 34.72056,-34.72056 c 2.12132,-2.12132 4.15721,0.0854 2.03589,2.20675 l -33.55711,33.55711 c -2.12132,2.12132 1.09232,3.15032 3.21364,1.029 l 32.44185,-32.44185 c 2.12132,-2.12132 4.26332,-0.0207 2.142,2.10064 l -31.37021,31.37021 c -2.12132,2.12132 1.09561,3.14703 3.21694,1.02571 l 30.3567,-30.3567 c 2.12132,-2.12132 4.3906,-0.14796 2.26928,1.97336 l -29.39837,29.39837 c -2.12132,2.12132 1.10629,3.13634 3.22761,1.01502 l 28.48732,-28.48732 c 2.12132,-2.12132 4.48613,-0.24348 2.36481,1.87784 l -27.62451,27.62451 c -2.12132,2.12132 1.11068,3.13196 3.232,1.01063 l 26.84285,-26.84284 c 2.12132,-2.12132 4.61981,-0.37717 2.49849,1.74415 l -26.1045,26.1045 c -2.12132,2.12132 1.11552,3.12712 3.23684,1.0058 l 25.41798,-25.41798 c 2.12132,-2.12132 4.7419,-0.49926 2.62058,1.62206 l -24.80172,24.80172 c -2.12132,2.12132 1.11551,3.12713 3.23683,1.00581 l 24.25602,-24.25602 c 2.12132,-2.12132 4.86929,-0.62665 2.74797,1.49467 l -23.76368,23.76368 c -2.12132,2.12132 1.11893,3.12371 3.24025,1.00239 l 23.33026,-23.33026 c 2.12132,-2.12132 5.01066,-0.76802 2.88934,1.3533 l -22.97935,22.97936 c -2.12132,2.12132 1.11892,3.12371 3.24024,1.00239 l 22.70134,-22.70134 c 2.12132,-2.12132 5.15002,-0.90738 3.0287,1.21394 l -22.48979,22.48979 c -2.12132,2.12132 1.11893,3.12371 3.24025,1.00239 l 22.34782,-22.34781 c 2.12132,-2.12132 5.29263,-1.04999 3.17131,1.07133 l -22.27888,22.27888 c -2.12132,2.12132 1.11893,3.12371 3.24025,1.00239 l 22.32438,-22.32438 c 2.12132,-2.12132 5.47806,-1.23542 3.35674,0.8859 l -22.44088,22.44087 c -2.12132,2.12132 1.11893,3.12372 3.24025,1.0024 l 22.6434,-22.6434 c 2.12132,-2.12132 5.65945,-1.41681 3.53813,0.70451 l -22.94128,22.94128 c -2.12132,2.12132 1.11893,3.12371 3.24025,1.00239 l 23.4106,-23.4106 c 2.12132,-2.12132 6.04075,-1.79811 3.91943,0.32321 l -24.08978,24.08979 c -2.12132,2.12132 1.11892,3.12371 3.24024,1.00239 l 24.90059,-24.90058 c 2.12132,-2.12132 6.28979,-2.04715 4.16847,0.0742 l -25.82881,25.8288 c -2.12132,2.12132 1.11893,3.12371 3.24025,1.00239 l 26.89479,-26.89478 c 2.12132,-2.12132 6.80884,-2.5662 4.68752,-0.44488 l -29.93305,29.93305 M 166.91673,104.8671 143.21828,128.56555 c -2.12132,2.12132 -0.45157,4.69421 1.66975,2.57289 l 26.61973,-26.61973 c 2.12132,-2.12132 6.71757,-2.47492 4.59625,-0.3536 l -30.53793,30.53793 c -2.12132,2.12132 -1.97771,6.22035 0.14361,4.09903 l 34.26102,-34.26102 c 2.12132,-2.12132 5.23896,-0.99632 3.11764,1.125 l -36.26921,36.26921 c -2.12132,2.12132 -0.37286,4.6155 1.74846,2.49418 l 36.8381,-36.8381 c 2.12132,-2.12132 3.80898,0.43365 1.68766,2.55497 l -36.27486,36.27487 c -2.12132,2.12132 0.48435,3.75829 2.60567,1.63697 l 34.92586,-34.92586 c 2.12132,-2.12132 3.04921,1.19343 0.92789,3.31475 l -33.05516,33.05516 c -2.12132,2.12132 0.36683,3.87581 2.48815,1.75448 l 31.30008,-31.30008 c 2.12132,-2.12132 2.70843,1.53421 0.58711,3.65553 l -29.87634,29.87635 c -2.12132,2.12132 -0.57459,4.81723 1.54673,2.69591 l 28.79445,-28.79445 c 2.12132,-2.12132 2.5588,1.68384 0.43748,3.80517 l -29.52277,29.52276 m -72.185622,29.75922 8.730364,-8.73037 c 2.121318,-2.12132 6.136338,-1.89369 4.015018,0.22763 l -15.265041,15.26504 c -2.12132,2.12132 -3.227961,7.4706 -1.106641,5.34928 l 18.945802,-18.9458 c 2.12132,-2.12132 3.95805,0.28459 1.83673,2.40591 l -20.667869,20.66787 c -2.12132,2.12132 -0.38539,4.62803 1.735931,2.50671 l 20.405588,-20.40559 c 2.12132,-2.12132 3.40709,0.83555 1.28577,2.95687 l -18.974197,18.9742 c -2.12132,2.12132 1.611982,2.63066 3.733302,0.50934 l 16.451785,-16.45179 c 2.12132,-2.12132 3.56886,0.67378 1.44754,2.7951 l -13.53562,13.53562 c -2.12132,2.12132 3.17202,1.07063 5.29334,-1.05069 l 9.87974,-9.87975 c 2.12132,-2.12132 3.90536,0.33728 1.78404,2.4586 l -7.18914,7.18914 c -2.12132,2.12132 1.61197,2.63068 3.73329,0.50936 l 5.39839,-5.39839 c 2.12132,-2.12132 4.33273,-0.0901 2.21141,2.03122 l -4.62661,4.62661 c -2.12131,2.12132 0.21174,4.0309 2.33306,1.90958 l 74.67643,-74.67642 c 2.12132,-2.12132 3.8826,0.36004 1.76128,2.48136 l -75.80931,75.8093 c -2.12132,2.12132 -4.07676,8.31941 -1.95544,6.19809 l 88.0987,-88.0987 m 68.48712,-123.641448 -6.79759,6.797584 c -2.12132,2.12132 -1.1336,5.376239 0.98772,3.254918 l 9.86675,-9.866745 c 2.12132,-2.12132 7.73598,-3.493343 5.61466,-1.372022 l -13.71901,13.719016 c -2.12132,2.12132 -0.0525,4.295174 2.06878,2.173853 L 287.7545,9.485144 c 2.12133,-2.12132 6.99868,-2.756034 4.87736,-0.634714 l -19.45895,19.458949 c -2.12132,2.12132 0.25218,3.99046 2.3735,1.869139 L 297.26694,8.457984 c 2.12132,-2.12132 5.79487,-1.552228 3.67355,0.569092 L 277.8828,32.084774 c -2.12132,2.12132 0.069,4.173687 2.19027,2.052366 L 304.25243,9.957775 c 2.12132,-2.12132 4.77929,-0.536644 2.65797,1.584676 l -24.82962,24.829614 c -2.12132,2.12132 -0.45701,4.699653 1.66431,2.578332 l 24.88559,-24.88559 c 2.12132,-2.12132 2.19359,2.049057 0.0723,4.170378 l -23.78774,23.787733 c -2.12132,2.12132 -1.22747,5.470112 0.89385,3.348792 L 307.5821,23.598674 M 227.08358,61.670785 215.87904,72.87533 c -2.12132,2.12132 -1.21214,5.454779 0.90918,3.333459 l 16.78207,-16.782072 c 2.12132,-2.12132 7.20784,-2.965196 5.08652,-0.843875 l -19.88795,19.887946 c -2.12132,2.12132 0.3139,3.928743 2.43522,1.807423 l 20.99482,-20.99482 c 2.12132,-2.12132 4.29689,-0.05425 2.17557,2.067068 l -20.38773,20.387732 c -2.12132,2.12132 0.96925,3.27339 3.09057,1.152069 l 18.26092,-18.260919 c 2.12132,-2.12132 2.24057,2.002073 0.11925,4.123393 l -15.21107,15.211073 c -2.12132,2.12132 0.74434,3.498297 2.86566,1.376976 l 11.85937,-11.85937 c 2.12132,-2.12132 1.55527,2.687375 -0.56605,4.808695 l -8.79016,8.790152 c -2.12132,2.12132 -0.0329,4.275513 2.08845,2.154193 l 6.7298,-6.729801 c 2.12132,-2.12132 2.82441,1.418235 0.70309,3.539555 l -5.63721,5.63721 c -2.12132,2.12132 -0.46956,4.712199 1.65176,2.590878 l 5.0612,-5.061196 c 2.12132,-2.12132 3.31066,0.931975 1.18934,3.053295 l -4.67641,4.676417 c -2.12132,2.12132 -0.63012,4.872759 1.4912,2.751439 l 4.52765,-4.527656 c 2.12132,-2.12132 3.63917,0.603472 1.51785,2.724793 l -4.64432,4.644323 c -2.12132,2.12132 -0.8929,5.13554 1.22842,3.01422 l 5.04637,-5.04637 c 2.12132,-2.121318 3.82002,0.42262 1.6987,2.54394 l -74.25097,74.25097 c -2.12132,2.12132 5.65486,-1.41222 7.77618,-3.53354 l 68.24356,-68.24356 c 2.12132,-2.12132 6.04888,-1.80624 3.92756,0.31509 l -64.47407,64.47406 c -2.12132,2.12132 5.15637,-0.91373 7.27769,-3.03505 l 63.83065,-63.83064 c 2.12132,-2.12132 8.8244,-4.581771 6.70308,-2.46045 l -64.71891,64.71891 c -2.12132,2.12132 3.31009,0.93255 5.43141,-1.18877 l 89.55836,-89.55836 c 2.12132,-2.12132 3.45241,0.790232 1.33109,2.911552 l -85.78637,85.786368 c -2.12132,2.12132 2.70581,1.53684 4.82713,-0.58448 l 82.42264,-82.422641 c 2.12132,-2.12132 3.74249,0.500146 1.62117,2.621466 l -79.45154,79.451545 c -2.12132,2.12132 2.27163,1.971 4.39295,-0.15032 l 76.90353,-76.903527 c 2.12132,-2.12132 4.14667,0.09598 2.02535,2.217299 L 236.4672,162.59583 c -2.12132,2.12132 1.93493,2.30771 4.05625,0.18639 l 72.70928,-72.70928 c 2.12132,-2.12132 6.69062,-2.447976 4.5693,-0.326656 l -73.36385,73.363846 c -2.12132,2.12132 1.66571,2.57693 3.78703,0.45561 l 74.62985,-74.629849 c 2.12132,-2.12132 7.21968,-2.977042 5.09836,-0.855721 l -76.05737,76.05737 c -2.12132,2.12132 1.443,2.79964 3.56432,0.67832 l 76.79019,-76.790186 c 2.12132,-2.12132 6.72698,-2.484339 4.60566,-0.363019 L 258.92637,165.5925 c -2.12132,2.12132 1.25335,2.98929 3.37467,0.86797 l 79.0875,-79.087494 c 2.12132,-2.12132 6.62154,-2.378902 4.50022,-0.257581 l -80.29838,80.298375 c -2.12132,2.12132 1.09349,3.14916 3.21481,1.02784 l 81.53406,-81.534062 c 2.12132,-2.12132 6.54791,-2.30527 4.42659,-0.18395 l -82.85033,82.850332 c -2.12132,2.12132 0.91711,3.32553 3.03843,1.20421 l 84.21692,-84.216918 c 2.12132,-2.12132 6.52633,-2.283697 4.40501,-0.162376 l -85.65196,85.651964 c -2.12132,2.12132 0.78318,3.45946 2.9045,1.33814 L 369.57188,84.645479 M 39.981598,248.77277 38.878584,249.87578 M 193.52888,133.40925 130.21461,196.72352 M 298.81159,36.611825 286.47055,48.952868 c -2.12132,2.12132 -1.65393,5.896571 0.46739,3.77525 l 10.47107,-10.471071 c 2.12132,-2.12132 2.12132,2.12132 0,4.242641 l -10.17215,10.172151 c -2.12132,2.12132 -1.94326,6.185903 0.17806,4.064583 l 10.19797,-10.197974 c 2.12132,-2.12132 2.33877,1.903871 0.21745,4.025191 l -10.47992,10.479925 c -2.12132,2.12132 -2.06284,6.305475 0.0585,4.184155 l 10.90728,-10.90728 c 2.12132,-2.12132 2.81787,1.424777 0.69655,3.546097 l -11.73098,11.730976 c -2.12132,2.12132 -2.3094,6.55204 -0.18808,4.43072 l 12.66854,-12.668537 c 2.12132,-2.12132 3.04144,1.201195 0.92012,3.322515 l -13.93431,13.934317 c -2.12132,2.12132 -2.88715,7.129786 -0.76583,5.008466 L 303.31756,70.289622 M 216.43413,127.47457 113.99121,229.91749 c -2.12132,2.12132 -4.02158,8.26422 -1.90026,6.1429 L 226.86617,121.28516 c 2.12132,-2.12132 10.17696,-5.93431 8.05564,-3.81299 L 110.5788,241.81518 c -2.12132,2.12132 -3.85003,8.09267 -1.72871,5.97135 l 27.33861,-27.33861 c 2.12132,-2.12132 -1.55653,5.79918 -3.67785,7.9205 l -24.02004,24.02003 c -2.12132,2.12132 -2.86168,7.10432 -0.74036,4.983 l 22.7085,-22.7085 M 27.592108,358.743 l 4.210415,-4.21042 c 2.12132,-2.12132 5.570377,-1.32773 3.449057,0.79359 l -6.10821,6.10821 c -2.12132,2.12132 -2.1456,6.38824 -0.02428,4.26692 l 9.149464,-9.14947 c 2.12132,-2.12132 4.899561,-0.65692 2.77824,1.4644 l -11.873695,11.8737 c -2.12132,2.12132 -1.926544,6.16918 0.194776,4.04786 l 14.307613,-14.30761 c 2.12132,-2.12132 4.69074,-0.4481 2.56942,1.67322 l -16.306773,16.30677 c -2.12132,2.12132 -1.037474,5.28012 1.083846,3.1588 l 17.792347,-17.79235 c 2.12132,-2.12132 5.249592,-1.00695 3.128271,1.11437 l -19.48078,19.48078 c -2.12132,2.12132 -0.207698,4.45034 1.913623,2.32902 l 21.809798,-21.8098 c 2.12132,-2.12132 6.363961,-2.12132 4.242641,0 l -22.89171,22.89171 c -2.12132,2.12132 5.018216,-0.77557 7.139536,-2.8969 l 20.238758,-20.23875 c 2.12132,-2.12132 6.25627,-2.01363 4.13495,0.10769 l -9.344345,9.34434 c -2.12132,2.12132 3.033736,1.20891 5.155056,-0.91241 l 8.836143,-8.83615 c 2.12132,-2.12132 7.41583,-3.17319 5.29451,-1.05187 l -9.532097,9.5321 c -2.12132,2.12132 2.218043,2.0246 4.339364,-0.0967 L 87.538668,358.19341 M 366.98098,27.839408 l -6.68856,6.688554 c -2.12132,2.12132 -2.83244,7.075089 -0.71112,4.953769 l 11.8611,-11.861103 c 2.12132,-2.12132 7.40595,-3.16331 5.28463,-1.04199 l -16.75985,16.759853 c -2.12132,2.12132 -1.00519,5.247827 1.11613,3.126506 l 20.16457,-20.164573 c 2.12132,-2.12132 6.41449,-2.171847 4.29317,-0.05053 l -22.96456,22.964564 c -2.12132,2.12132 -0.44209,4.684725 1.67923,2.563405 l 25.3156,-25.315597 c 2.12132,-2.12132 5.9589,-1.716258 3.83758,0.405063 l -27.38231,27.382306 c -2.12132,2.12132 -0.28895,4.531591 1.83237,2.410271 l 29.16956,-29.169557 c 2.12132,-2.12132 5.47811,-1.235473 3.35679,0.885848 l -30.70285,30.702856 c -2.12132,2.12132 -0.3394,4.58204 1.78192,2.460719 L 403.51122,29.49293 c 2.12132,-2.12132 4.99086,-0.748214 2.86953,1.373107 l -33.25631,33.256316 c -2.12132,2.12132 -0.63313,4.875773 1.48819,2.754452 l 34.36601,-34.366017 c 2.12132,-2.12132 4.42504,-0.182394 2.30372,1.938926 l -35.4944,35.494402 c -2.12132,2.12132 -1.47736,5.72 0.64396,3.598679 l 36.85053,-36.850537 c 2.12132,-2.12132 3.82361,0.419035 1.70229,2.540355 L 374.79852,79.418837 M 417.71587,40.744121 283.66823,174.79176 c -2.12132,2.12132 0.63358,3.60907 2.7549,1.48775 L 416.24526,46.457382 c 2.12132,-2.12132 -0.8243,5.066934 -2.94562,7.188254 L 289.11947,177.82581 c -2.12132,2.12132 0.51815,3.72448 2.63947,1.60316 L 393.85532,77.332594 c 2.12132,-2.12132 0.008,4.234392 -2.11307,6.355713 l -97.39823,97.398233 c -2.12132,2.12132 0.38089,3.86175 2.50221,1.74043 l 95.14848,-95.148481 c 2.12132,-2.12132 5.51209,-1.269444 3.39077,0.851877 l -96.09012,96.090114 c -2.12132,2.12132 0.2756,3.96704 2.39692,1.84572 l 97.26258,-97.262582 c 2.12132,-2.12132 5.69071,-1.448068 3.56939,0.673252 l -98.49006,98.49006 c -2.12132,2.12132 0.14423,4.09842 2.26555,1.9771 l 99.7939,-99.793907 c 2.12132,-2.12132 5.68997,-1.447325 3.56865,0.673996 L 308.51456,192.37185 c -2.12132,2.12132 0.043,4.19962 2.16434,2.0783 L 413.23059,91.898459 c 2.12132,-2.12132 5.70247,-1.459836 3.58115,0.661485 L 312.78104,196.59065 c -2.12132,2.12132 -0.0878,4.3304 2.03356,2.20908 L 420.54856,93.065768 c 2.12132,-2.12132 5.65292,-1.410283 3.5316,0.711037 L 316.79718,201.05979 c -2.12132,2.12132 -0.19003,4.43267 1.93129,2.31135 L 428.08962,94.009989 c 2.12132,-2.12132 8.77068,-4.528042 6.64936,-2.406721 L 320.58672,205.75552 c -2.12132,2.12132 -0.32525,4.5679 1.79607,2.44658 L 512.07477,18.510124 c 2.12132,-2.12132 -0.0692,-4.17347 -2.1905,-2.052149 l -54.58126,54.581266 m 11.68776,-66.842096 1.26758,-1.267577 c 1.6901,-1.690103 6.56865,-2.32601 4.87855,-0.635907 l -5.34816,5.348153 c -2.12132,2.12132 -1.76552,6.008164 0.3558,3.886843 l 8.62444,-8.624435 c 2.12132,-2.12132 5.62753,-1.384893 3.50621,0.736427 l -11.2785,11.278501 c -2.12132,2.12132 -1.05855,5.301186 1.06277,3.179866 L 483.61951,4.538967 c 2.12132,-2.12132 5.38459,-1.141949 3.26327,0.979371 L 471.2741,21.127016 c -2.12132,2.12132 -0.82872,5.071361 1.2926,2.950041 L 490.05368,6.590085 c 2.12132,-2.12132 5.2251,-0.982465 3.10378,1.138855 l -19.39569,19.395689 c -2.12132,2.12132 -1.43546,5.678102 0.68586,3.556782 L 496.20794,8.921099 c 2.12132,-2.12132 5.0817,-0.839054 2.96038,1.282266 l -25.98337,25.983371 c -2.12132,2.12132 -4.35639,8.599023 -2.23507,6.477703 L 502.03376,11.58056 c 2.12132,-2.12132 4.86022,-0.617578 2.7389,1.503742 l -39.1472,39.147202 M 13.270316,470.64552 l 1.999806,-1.9998 c 2.12132,-2.12132 6.275242,-2.0326 4.153922,0.0887 l -4.851047,4.85104 c -2.12132,2.12132 -1.821904,6.06455 0.299417,3.94323 l 8.155978,-8.15598 c 2.12132,-2.12132 5.220126,-0.97749 3.098806,1.14384 L 15.572564,481.0712 c -2.12132,2.12132 -1.253489,5.49613 0.867832,3.37481 l 12.731787,-12.73179 c 2.12132,-2.12132 5.119335,-0.87669 2.998014,1.24463 l -14.734886,14.73488 c -2.12132,2.12132 -1.010129,5.25277 1.111192,3.13145 l 16.699331,-16.69933 c 2.12132,-2.12132 5.347534,-1.10489 3.226214,1.01643 l -18.723914,18.72391 c -2.12132,2.12132 -0.830129,5.07277 1.291191,2.95145 l 21.50219,-21.50219 c 2.12132,-2.12132 7.565648,-3.32301 5.444327,-1.20169 L 22.42574,499.67387 c -2.12132,2.12132 -0.611735,4.85437 1.509585,2.73305 L 53.18586,473.15639 c 2.12132,-2.12132 8.619443,-4.3768 6.498123,-2.25548 l -34.075111,34.07511 c -2.12132,2.12132 -0.183092,4.42573 1.938228,2.30441 L 69.816427,465.0111 m 26.607783,-64.79155 0.663672,-0.66367 c 0.884896,-0.8849 4.232818,0.01 3.347918,0.89472 l -1.846429,1.84643 c -2.12132,2.12132 -1.563721,5.80636 0.557599,3.68504 l 3.73537,-3.73537 c 2.12132,-2.12132 5.36134,-1.1187 3.24002,1.00262 l -6.158217,6.15822 c -2.12132,2.12132 -1.394221,5.63686 0.727097,3.51554 l 8.72412,-8.72412 c 2.12132,-2.12132 5.39811,-1.15547 3.27679,0.96585 l -11.25732,11.25732 c -2.121315,2.12132 -1.37772,5.62037 0.7436,3.49905 l 13.78586,-13.78586 c 2.12132,-2.12132 5.39345,-1.15081 3.27213,0.97051 l -16.31479,16.31478 c -2.12132,2.12132 -1.80861,6.05125 0.31271,3.92993 l 19.27421,-19.2742 c 2.12132,-2.12132 5.39345,-1.15081 3.27213,0.97051 L 90.82316,444.00437 M 509.00568,13.093927 461.29307,60.806538 m 33.87554,-21.147619 18.60804,-18.608036 c 2.12131,-2.12132 2.78133,1.461311 0.66001,3.582631 l -9.01409,9.01409 M 487.65532,47.172206 324.12503,210.7025 c -2.12132,2.12132 -0.43385,4.67649 1.68747,2.55517 L 480.24351,58.826661 c 2.12132,-2.12132 -0.78235,5.024986 -2.90367,7.146307 L 327.41505,215.89776 c -2.12132,2.12132 -0.57905,4.82169 1.54227,2.70037 L 475.60585,71.949596 c 2.12132,-2.12132 1.40279,2.839854 -0.71853,4.961174 L 330.43984,221.35825 c -2.12132,2.12132 -0.7004,4.94304 1.42092,2.82172 L 473.73691,82.303823 c 2.12132,-2.12132 1.84504,2.397598 -0.27628,4.518918 L 333.18708,227.09629 c -2.12132,2.12132 -0.84084,5.08348 1.28048,2.96216 L 473.53302,90.992993 c 2.12132,-2.12132 2.50788,1.734765 0.38656,3.856086 L 335.6964,233.07225 c -2.12132,2.12132 -0.94513,5.18777 1.17619,3.06645 L 474.48019,98.531107 c 2.12132,-2.12132 2.81534,1.427302 0.69402,3.548623 L 337.95988,239.29405 c -2.12132,2.12132 -1.13163,5.37428 0.98969,3.25296 L 475.99299,105.50358 c 2.12132,-2.12132 3.08848,1.15416 0.96716,3.27548 l -137.1283,137.1283 c -2.12132,2.12132 -1.41022,5.65286 0.71111,3.53154 L 478.19471,111.78715 c 2.12132,-2.12132 4.14311,0.0995 2.02179,2.22085 L 341.06196,253.16254 c -2.12132,2.12132 -1.66059,5.90323 0.46073,3.78191 L 482.81616,115.65098 c 2.12132,-2.12132 4.79531,-0.55267 2.67399,1.56865 L 341.79,260.91978 c -2.12132,2.12132 -1.96246,6.2051 0.15886,4.08378 L 488.21259,118.73983 c 2.12132,-2.12132 4.85128,-0.60864 2.72996,1.51268 l -64.56494,64.56494 M 28.502662,510.56751 129.04608,410.02409 c 2.12132,-2.12132 5.37502,-1.13238 3.2537,0.98894 l -72.782886,72.78289 c -2.12132,2.12132 4.268597,-0.026 6.389917,-2.14728 l 69.646669,-69.64667 c 2.12132,-2.12132 5.37503,-1.13239 3.25371,0.98893 l -67.016601,67.0166 c -2.12132,2.12132 3.415968,0.82668 5.537289,-1.29464 l 64.733012,-64.73302 c 2.12132,-2.12132 5.37503,-1.13238 3.25371,0.98894 l -62.746385,62.74638 c -2.12132,2.12132 2.703011,1.53963 4.824332,-0.58169 L 148.5683,415.95772 c 2.12132,-2.12132 5.36903,-1.12639 3.24771,0.99493 l -59.659881,59.65988 c -2.12132,2.12132 1.880155,2.36248 4.001476,0.24116 l 58.904175,-58.90418 c 2.12132,-2.12132 5.3671,-1.12445 3.24578,0.99687 l -58.22655,58.22654 c -2.121318,2.12132 1.27646,2.96619 3.39778,0.84487 l 58.07455,-58.07455 c 2.12132,-2.12132 5.3671,-1.12446 3.24578,0.99686 l -57.92983,57.92983 c -2.12132,2.12132 1.29474,2.9479 3.41606,0.82658 l 57.75954,-57.75955 c 2.12132,-2.12132 5.3671,-1.12445 3.24578,0.99687 l -57.4906,57.4906 c -2.12132,2.12132 1.4978,2.74484 3.61912,0.62352 l 57.11726,-57.11726 c 2.12132,-2.12132 5.3671,-1.12446 3.24578,0.99686 L 121.237,481.47278 c -2.12132,2.12132 1.76227,2.48037 3.88359,0.35905 L 181.028,425.92442 c 2.12132,-2.12132 5.3671,-1.12446 3.24578,0.99686 l -56.73508,56.73508 c -2.12132,2.12132 -0.51103,4.75367 1.61029,2.63235 l 58.37057,-58.37057 c 2.12132,-2.12132 5.3671,-1.12445 3.24578,0.99687 l -60.00607,60.00606 c -2.12132,2.12132 -0.51103,4.75367 1.61029,2.63235 l 61.64155,-61.64155 c 2.12132,-2.12132 5.3671,-1.12446 3.24578,0.99686 l -63.27788,63.27788 c -2.12132,2.12132 -0.51556,4.7582 1.60576,2.63688 l 64.9179,-64.9179 c 2.12132,-2.12132 5.3671,-1.12445 3.24578,0.99687 l -66.57892,66.57892 c -2.12132,2.12132 -0.58844,4.83107 1.53288,2.70975 l 65.2066,-65.2066 c 2.12132,-2.12132 2.12132,2.12132 0,4.24264 l -65.66898,65.66899 m -97.961998,-3.86138 -7.899896,7.89989 M 400.67638,210.51868 342.00246,269.1926 c -2.12132,2.12132 -2.12866,6.3713 -0.007,4.24998 l 49.43409,-49.43409 c 2.12132,-2.12132 -1.35525,5.5979 -3.47657,7.71922 l -45.99837,45.99836 c -2.12132,2.12132 -2.2252,6.46785 -0.10388,4.34653 l 42.74593,-42.74594 c 2.12132,-2.12132 -0.042,4.28466 -2.16334,6.40598 l -40.83565,40.83565 c -2.12132,2.12132 -2.71815,6.9608 -0.59683,4.83948 l 40.05293,-40.05293 c 2.12132,-2.12132 1.11616,3.12648 -1.00516,5.2478 l -40.22132,40.22131 c -2.12132,2.12132 -3.75408,7.99672 -1.63276,5.8754 l 41.14623,-41.14622 c 2.12132,-2.12132 1.64158,2.60106 -0.47974,4.72238 l -42.83905,42.83905 c -2.12132,2.12132 -5.15674,9.39938 -3.03542,7.27806 l 45.63858,-45.63858 c 2.12132,-2.12132 2.29413,1.9485 0.17282,4.06982 l -51.88893,51.88893 M 437.5577,177.88034 493.64573,121.79231 c 2.12132,-2.12132 4.78103,-0.53839 2.65971,1.58293 l -49.22999,49.22999 c -2.12132,2.12132 5.66681,-1.42417 7.78813,-3.54549 l 44.09253,-44.09252 c 2.12132,-2.12132 4.74357,-0.50094 2.62225,1.62038 l -39.76858,39.76858 c -2.12132,2.12132 3.64946,0.59319 5.77078,-1.52813 l 36.60646,-36.60646 c 2.12132,-2.12132 4.70961,-0.46697 2.58829,1.65435 l -33.92162,33.92162 c -2.12132,2.12132 2.5697,1.67294 4.69102,-0.44839 l 31.79432,-31.79432 c 2.12132,-2.12132 4.67431,-0.43166 2.55299,1.68966 l -29.90403,29.90403 c -2.12132,2.12132 2.11099,2.13164 4.23231,0.0103 l 28.20646,-28.20645 c 2.12132,-2.12132 4.65606,-0.41342 2.53474,1.7079 l -26.41245,26.41244 c -2.12132,2.12132 2.11343,2.12922 4.23475,0.008 l 24.71244,-24.71244 c 2.12132,-2.12132 4.65606,-0.41342 2.53474,1.7079 l -23.05449,23.05449 c -2.12132,2.12132 1.98289,2.25975 4.10421,0.13843 l 69.0098,-69.010217 c 2.12132,-2.12132 4.48348,-0.24084 2.36216,1.88048 l -67.46689,67.466887 c -2.12132,2.12132 1.55421,2.68843 3.67553,0.56711 l 66.05843,-66.058432 c 2.12132,-2.12132 4.27826,-0.03561 2.15694,2.085712 l -64.73191,64.7319 c -2.12132,2.12132 1.25128,2.99137 3.3726,0.87005 l 33.90215,-33.90216 m -454.169353,386.2871 -6.775104,6.77511 c -2.12132,2.12132 -2.37748,6.62012 -0.25616,4.4988 l 10.344677,-10.34468 c 2.12132,-2.12132 6.62709,-2.38445 4.50577,-0.26313 L 90.6176,533.30538 c -2.12132,2.12132 -1.309889,5.55253 0.811431,3.43121 l 18.056359,-18.05636 c 2.12132,-2.12132 6.52071,-2.27807 4.39939,-0.15675 l -21.201336,21.20134 c -2.12132,2.12132 -0.733018,4.97566 1.388303,2.85434 l 24.233643,-24.23364 c 2.12132,-2.12132 6.65663,-2.414 4.53531,-0.29267 l -27.21868,27.21868 c -2.12132,2.12132 -0.431597,4.67423 1.689723,2.55291 l 32.342027,-32.34202 m 87.10047,-108.31368 24.36516,-24.36516 c 2.12132,-2.12132 7.19346,-2.95082 5.07214,-0.8295 l -22.45715,22.45715 c -2.12132,2.12132 1.86179,2.38086 3.98311,0.25954 l 23.02483,-23.02484 c 2.12132,-2.12132 7.35472,-3.11208 5.2334,-0.99076 l -24.46194,24.46195 c -2.12132,2.12132 1.66109,2.58154 3.78241,0.46022 l 26.47216,-26.47215 c 2.12132,-2.12132 8.48699,-4.24436 6.36567,-2.12304 l -29.08341,29.08341 c -2.12132,2.12132 1.63311,2.60954 3.75443,0.48822 l 34.14664,-34.14665 M 554.95332,90.182864 557.29505,87.84114 c 2.12132,-2.12132 6.24412,-2.001481 4.1228,0.11984 l -5.58415,5.584143 c -2.12132,2.12132 -2.34703,6.589677 -0.22571,4.468354 l 8.76708,-8.767079 c 2.12132,-2.12132 4.83325,-0.590606 2.71193,1.530714 l -11.53242,11.532418 c -2.12132,2.12132 -3.79088,8.03352 -1.66956,5.9122 L 571.2297,90.877047 M 205.5,443.87883 99.127795,550.25103 c -2.12132,2.12132 -0.185345,4.42799 1.935975,2.30667 L 203.90901,449.71246 c 2.12132,-2.12132 2.12132,2.12132 0,4.24264 L 103.11877,554.74534 c -2.12132,2.12132 0.0571,4.18553 2.17843,2.06421 l 98.61181,-98.61181 c 2.12132,-2.12132 2.12132,2.12132 0,4.24264 l -96.30098,96.30098 c -2.12132,2.12132 0.34011,3.90253 2.46143,1.78121 l 93.83955,-93.83955 c 2.12132,-2.12132 2.12132,2.12132 0,4.24264 l -51.55735,51.55735 c -2.12132,2.12132 0.25136,3.99128 2.37268,1.86996 l 49.18467,-49.18467 c 2.12132,-2.12132 2.12132,2.12132 0,4.24264 l -47.01742,47.01742 c -2.12132,2.12132 -0.021,4.26364 2.10032,2.14232 l 44.9171,-44.9171 c 2.12132,-2.12132 2.12132,2.12132 0,4.24265 l -42.86399,42.86399 c -2.12132,2.12132 -0.1109,4.35353 2.01042,2.23221 l 40.85357,-40.85356 c 2.12132,-2.12132 2.12132,2.12132 0,4.24264 l -38.85929,38.85928 c -2.12132,2.12132 -0.12704,4.36969 1.99428,2.24837 l 36.86501,-36.86501 c 2.12132,-2.12132 2.12132,2.12132 0,4.24264 l -34.87073,34.87073 c -2.12132,2.12132 -0.12704,4.36968 1.99428,2.24836 l 32.87645,-32.87645 c 2.12132,-2.12132 2.12132,2.12132 0,4.24264 l -28.60713,28.60713 c -2.12132,2.12132 3.59798,0.64466 5.7193,-1.47666 l 22.88783,-22.88783 c 2.12132,-2.12132 2.12132,2.12132 0,4.24264 l -16.86717,16.86717 c -2.12132,2.12132 4.09604,0.14661 6.21736,-1.97471 l 10.64981,-10.64982 c 2.12132,-2.12132 2.12132,2.12132 0,4.24264 l -5.32508,5.32509 c -0.79605,0.79605 5.52298,-1.28035 6.31903,-2.0764 L 205.5,532.97428 m 80.0495,-164.90231 -39.02178,39.02178 c -2.12132,2.12132 1.60406,2.63858 3.72538,0.51726 L 378.65361,279.2105 c 2.12132,-2.12132 2.4797,1.76294 0.35838,3.88426 L 253.98015,408.1266 c -2.12132,2.12132 1.60739,2.63525 3.72871,0.51393 L 379.27369,287.0757 c 2.12132,-2.12132 2.61096,1.63168 0.48964,3.753 L 261.43757,409.15446 c -2.12132,2.12132 1.62693,2.61571 3.74825,0.49439 L 380.37917,294.4555 c 2.12132,-2.12132 2.83641,1.40623 0.71509,3.52755 L 268.94699,410.13032 c -2.12132,2.12132 1.63986,2.60279 3.76118,0.48146 L 381.90344,301.41651 c 2.12132,-2.12132 3.02037,1.22227 0.89905,3.34359 L 276.49122,411.07137 c -2.12132,2.12132 1.67144,2.5712 3.79276,0.44988 L 383.80346,308.00177 c 2.12132,-2.12132 3.1995,1.04314 1.07818,3.16446 l -100.8049,100.8049 c -2.12132,2.12132 1.6975,2.54514 3.81882,0.42382 l 98.14249,-98.14248 c 2.12132,-2.12132 3.35331,0.88932 1.23199,3.01064 l -95.54969,95.54969 c -2.12132,2.12132 1.70347,2.53917 3.82479,0.41785 l 93.03009,-93.03009 c 2.12132,-2.12132 3.49754,0.74511 1.37621,2.86643 l -90.54742,90.54743 c -2.12132,2.12132 1.73739,2.50524 3.85871,0.38393 l 88.134,-88.13401 c 2.12132,-2.12132 3.64213,0.60051 1.52081,2.72183 l -85.78455,85.78455 c -2.12132,2.12132 1.77505,2.46759 3.89637,0.34627 l 83.47015,-83.47015 c 2.12132,-2.12132 3.76685,0.47579 1.64553,2.59711 l -81.2193,81.21931 c -2.12132,2.12132 1.80847,2.43417 3.92979,0.31285 l 78.99735,-78.99735 c 2.12132,-2.12132 3.89033,0.35231 1.769,2.47363 l -76.82595,76.82596 c -2.12132,2.12132 1.84103,2.40161 3.96235,0.28029 l 74.69276,-74.69276 c 2.12132,-2.12132 4.00971,0.23293 1.88839,2.35425 l -72.58617,72.58617 c -2.12132,2.12132 1.89363,2.34901 4.01495,0.22769 l 70.51801,-70.51801 c 2.12132,-2.12132 4.1258,0.11684 2.00448,2.23816 l -68.45528,68.45528 c -2.12132,2.12132 2.00044,2.2422 4.12176,0.12088 l 66.39855,-66.39855 c 2.12132,-2.12132 4.23045,0.0122 2.10913,2.13351 l -64.36563,64.36564 c -2.12132,2.12132 2.10113,2.1415 4.22245,0.0202 l 62.32162,-62.32162 c 2.12132,-2.12132 4.34309,-0.10045 2.22177,2.02087 l -60.29722,60.29722 c -2.12132,2.12132 2.15855,2.0841 4.27987,-0.0372 l 58.28622,-58.28623 c 2.12132,-2.12132 4.46994,-0.22729 2.34862,1.89403 l -56.30333,56.30333 c -2.12132,2.12132 2.22209,2.02055 4.34341,-0.10077 l 54.35624,-54.35624 c 2.12132,-2.12132 4.56691,-0.32428 2.44559,1.79704 l -52.39318,52.39319 c -2.12132,2.12132 2.29984,1.9428 4.42116,-0.17852 l 50.4927,-50.49271 c 2.12132,-2.12132 4.70548,-0.46283 2.58416,1.65849 l -48.61589,48.61589 c -2.12132,2.12132 2.36584,1.8768 4.48716,-0.24452 l 46.76761,-46.76761 c 2.12132,-2.12132 4.81691,-0.57427 2.69559,1.54705 l -44.9478,44.9478 c -2.12132,2.12132 2.42572,1.81692 4.54704,-0.3044 l 43.1907,-43.19069 c 2.12132,-2.12132 4.96999,-0.72735 2.84867,1.39397 l -41.47219,41.47218 c -2.12132,2.12132 2.48006,1.76258 4.60138,-0.35874 l 39.78306,-39.78305 c 2.12132,-2.12132 5.09973,-0.8571 2.97841,1.26422 l -38.14497,38.14498 c -2.12132,2.12132 2.5294,1.71323 4.65072,-0.40809 l 36.5747,-36.5747 c 2.12132,-2.12132 5.271,-1.02836 3.14968,1.09297 l -35.0609,35.06089 c -2.12132,2.12132 2.57425,1.6684 4.69557,-0.45292 l 33.58997,-33.58997 c 2.12132,-2.12133 5.42434,-1.1817 3.30302,0.93962 l -32.18471,32.1847 c -2.12132,2.12132 2.61501,1.62763 4.73633,-0.49369 l 30.83344,-30.83344 c 2.12132,-2.12132 5.63053,-1.38789 3.50921,0.73343 l -29.59161,29.59162 c -2.12132,2.12132 2.65208,1.59056 4.7734,-0.53076 l 28.43144,-28.43144 c 2.12132,-2.12132 5.96262,-1.71998 3.8413,0.40134 l -27.48088,27.48088 c -2.12132,2.12132 2.6858,1.55684 4.80712,-0.56448 l 26.66073,-26.66074 c 2.12133,-2.12132 6.24661,-2.00396 4.12528,0.11736 l -25.95515,25.95516 c -2.12132,2.12132 2.53435,1.70829 4.65567,-0.41303 l 25.62502,-25.62502 c 2.12132,-2.12132 6.35616,-2.11352 4.23484,0.008 l -24.80958,24.80958 c -2.12132,2.12132 2.74683,1.49581 4.86815,-0.62551 l 24.3902,-24.3902 c 2.12132,-2.12132 6.68275,-2.44011 4.56143,-0.31879 l -24.08836,24.08836 c -2.12132,2.12132 2.7416,1.50104 4.86292,-0.62028 l 24.29485,-24.29485 c 2.12132,-2.12132 7.18707,-2.94443 5.06575,-0.82311 l -24.58674,24.58674 c -2.12132,2.12132 2.59811,1.64453 4.71943,-0.47679 l 25.65292,-25.65291 c 2.12132,-2.12133 7.51452,-3.27188 5.3932,-1.15056 l -26.51235,26.51235 c -2.12132,2.12132 1.91641,2.32622 4.03773,0.2049 l 30.8283,-30.82829 M 138.93201,535.9029 112.72203,562.11288 c -2.12132,2.12132 0.75927,3.48337 2.88059,1.36205 l 19.80363,-19.80363 c 2.12132,-2.12132 1.05545,3.18719 -1.06587,5.30851 l -15.50647,15.50647 c -2.12132,2.12132 1.44856,2.79408 3.56988,0.67276 l 10.99842,-10.99842 c 2.12132,-2.12132 0.889,3.35364 -1.23232,5.47496 l -6.64506,6.64506 m 439.76034,-448.24562 15.62117,-15.62117 c 2.12132,-2.12132 3.92717,0.31547 1.80585,2.43679 l -9.52347,9.52347 c -2.12132,2.12132 3.36418,0.87847 5.4855,-1.24285 l 6.43001,-6.43002 c 0.52911,-0.52911 0.0252,4.21746 -0.50393,4.74657 l -0.39683,0.39684 m -34.85212,26.36683 8.7612,-8.7612 c 2.12132,-2.12132 7.25115,-3.0085 5.12983,-0.88718 l -15.48955,15.48955 m -6.29657,2.05393 -20.63888,20.63888 c -2.12132,2.12132 1.09513,3.1475 3.21645,1.02618 l 16.25482,-16.25481 m 28.72285,-24.48022 -41.83983,41.83984 c -2.12132,2.12132 0.94128,3.30136 3.0626,1.18004 l 40.66557,-40.66557 c 2.12132,-2.12132 5.27309,-1.03045 3.15177,1.09087 l -40.82697,40.82697 c -2.12132,2.12132 0.79947,3.44317 2.92079,1.32184 l 40.76635,-40.76634 c 2.12132,-2.12132 4.76137,-0.51874 2.64005,1.60259 L 538.999,174.01943 c -2.12132,2.12132 0.66712,3.57553 2.78844,1.45421 l 40.24357,-40.24358 c 2.12132,-2.12132 4.45511,-0.21246 2.33379,1.90886 l -39.85223,39.85223 c -2.12132,2.12132 0.54213,3.70051 2.66345,1.57919 l 39.39576,-39.39576 c 2.12132,-2.12132 4.22595,0.0167 2.10463,2.13801 l -38.89719,38.89719 c -2.12132,2.12132 0.42434,3.8183 2.54566,1.69698 l 38.34355,-38.34355 c 2.12132,-2.12132 4.00199,0.24065 1.88067,2.36197 l -37.74834,37.74835 c -2.12132,2.12132 0.29725,3.94538 2.41857,1.82406 l 37.09947,-37.09947 c 2.12132,-2.12132 3.75181,0.49084 1.63049,2.61216 l -36.3679,36.36789 c -2.12132,2.12132 0.18484,4.0578 2.30616,1.93648 l 35.54942,-35.54942 c 2.12132,-2.12132 3.42839,0.81425 1.30707,2.93557 l -34.60572,34.60572 c -2.12132,2.12132 0.0753,4.16738 2.19658,2.04606 l 33.56945,-33.56944 c 2.12132,-2.12132 2.90884,1.33379 0.78752,3.45511 L 568.47812,195.452 c -2.12132,2.12132 -0.0346,4.27725 2.08672,2.15593 l 30.7813,-30.78131 c 2.12132,-2.12132 1.69624,2.5464 -0.42508,4.66772 l -28.32772,28.32773 c -2.12132,2.12132 -0.15019,4.39283 1.97113,2.27151 l 9.74577,-9.74577 c 2.12132,-2.12132 3.90451,0.33812 1.78319,2.45944 l -9.61775,9.61776 c -2.12132,2.12132 -0.27245,4.51509 1.84887,2.39377 l 9.55345,-9.55345 c 2.12132,-2.12132 3.89746,0.34518 1.77614,2.4665 l -9.54528,9.54527 c -2.12132,2.12132 -0.40358,4.64623 1.71774,2.52491 l 9.5908,-9.5908 c 2.12132,-2.12132 3.83537,0.40726 1.71405,2.52859 l -9.65543,9.65543 c -2.12132,2.12132 -0.54167,4.78431 1.57965,2.66299 l 9.75911,-9.75911 c 2.12132,-2.12132 3.77275,0.46989 1.65143,2.59121 l -9.9018,9.9018 c -2.12132,2.12132 -0.68427,4.92691 1.43705,2.80559 l 10.04976,-10.04975 c 2.12132,-2.12132 3.69364,0.54899 1.57232,2.67031 l -10.25712,10.25713 c -2.12132,2.12132 -0.82849,5.07113 1.29283,2.94981 l 10.72579,-10.7258 c 2.12132,-2.12132 4.57962,-0.33697 2.4583,1.78435 L 591.8803,231.4468 c -2.12132,2.12132 -0.9713,5.21394 1.15002,3.09262 l 15.52947,-15.52948 c 2.12132,-2.12132 8.90435,-4.6617 6.78303,-2.54038 l -21.23014,21.23014 c -2.12132,2.12132 -1.10624,5.34888 1.01508,3.22756 l 26.74039,-26.74039 c 2.12132,-2.12132 9.12655,-4.88391 7.00523,-2.76259 l -32.81733,32.81733 c -2.12132,2.12132 -1.23971,5.48235 0.88161,3.36103 l 41.44767,-41.44767 m -444.89439,351.55629 -3.43132,3.43133 c -2.12132,2.12132 -2.20168,6.44431 -0.0804,4.32299 l 8.44562,-8.44562 c 2.12132,-2.12132 7.85857,-3.61593 5.73725,-1.49461 l -14.26322,14.26323 c -2.12132,2.12132 -2.21508,6.45772 -0.0938,4.3364 l 17.8883,-17.88829 c 2.12132,-2.12132 4.71686,-0.47423 2.59554,1.64709 l -20.91984,20.91985 c -2.12132,2.12132 -2.02661,6.26924 0.0947,4.14792 l 23.70969,-23.70969 c 2.12132,-2.12132 5.3097,-1.06705 3.18838,1.05427 l -27.18881,27.1888 c -2.12132,2.12132 -2.55289,6.79553 -0.43157,4.67421 l 30.96482,-30.96481 c 2.12132,-2.12132 5.62147,-1.37883 3.50015,0.74249 l -36.94231,36.9423 c -2.12132,2.12132 -5.26085,9.5035 -3.13953,7.38218 l 43.69188,-43.69188 c 2.12132,-2.12132 5.75163,-1.50899 3.63031,0.61233 l -56.34424,56.34424 m 426.69632,-443.66689 -7.1029,7.10291 m -437.38721,450.11513 -7.06138,7.06138 c -2.12132,2.12132 -1.27279,5.51543 0.84853,3.39411 l 14.90065,-14.90066 m 70.71773,-66.47508 -83.65704,83.65704 c -2.12132,2.12132 0.0902,4.15244 2.21152,2.03112 l 83.53982,-83.53982 c 2.12132,-2.12132 5.83223,-1.58959 3.71091,0.53173 l -31.14467,31.14467 m -17.59489,17.59489 -36.16981,36.16981 c -2.12132,2.12132 0.35706,3.88558 2.47838,1.76426 l 23.6735,-23.67341 m 38.308,-38.30801 24.16048,-24.16048 c 2.12132,-2.12132 5.84393,-1.60129 3.72261,0.52003 l -20.59284,20.59285 c -2.12132,2.12132 0.70219,3.54044 2.82351,1.41912 l 21.49649,-21.49649 c 2.12132,-2.12132 5.90399,-1.66135 3.78267,0.45997 l -22.45565,22.45565 c -2.12132,2.12132 0.70219,3.54045 2.82351,1.41913 l 23.31682,-23.31682 c 2.12132,-2.12132 5.8639,-1.62125 3.74258,0.50007 l -24.23588,24.23588 c -2.12132,2.12132 0.70219,3.54045 2.82351,1.41913 l 25.15778,-25.15779 c 2.12132,-2.12132 5.88248,-1.63984 3.76116,0.48148 l -26.09543,26.09543 c -2.12132,2.12132 0.70219,3.54045 2.82351,1.41913 l 27.03309,-27.03308 c 2.12132,-2.12132 5.8964,-1.65377 3.77508,0.46755 l -27.98466,27.98466 c -2.12132,2.12132 0.70219,3.54045 2.82351,1.41913 l 28.94445,-28.94444 c 2.12132,-2.12132 5.9114,-1.66876 3.79008,0.45256 l -29.91102,29.91101 c -2.12132,2.12132 0.7022,3.54045 2.82352,1.41913 l 30.8968,-30.89681 c 2.12132,-2.12132 5.93167,-1.68902 3.81035,0.4323 l -32.25839,32.25838 c -2.12132,2.12132 -0.95705,5.19969 1.16427,3.07837 l 34.93359,-34.93358 c 2.12132,-2.12132 5.95859,-1.71596 3.83727,0.40536 l -37.62951,37.62951 c -2.12132,2.12132 -1.07567,5.31832 1.04565,3.197 l 40.45786,-40.45787 c 2.12132,-2.12132 5.99349,-1.75084 3.87217,0.37048 l -67.50884,67.50884 c -2.12132,2.12132 -2.16139,6.40403 -0.0401,4.28271 l 71.46184,-71.46184 c 2.12132,-2.12132 6.0373,-1.79466 3.91598,0.32666 l -74.4754,74.4754 c -2.12132,2.12132 -0.73428,4.97692 1.38704,2.8556 l 77.0445,-77.0445 c 2.12132,-2.12132 6.09046,-1.84782 3.96914,0.2735 l -79.32738,79.32738 c -2.12132,2.12132 0.0673,4.17534 2.18862,2.05402 l 81.14201,-81.14201 c 2.12132,-2.12132 6.15256,-1.90992 4.03124,0.21141 l -82.64773,82.64772 c -2.12132,2.12132 0.64822,3.59443 2.76954,1.47311 l 83.92632,-83.92633 c 2.12132,-2.12132 6.22773,-1.98509 4.10641,0.13623 l -85.04146,85.04146 c -2.12132,2.12132 1.13519,3.10746 3.25651,0.98614 l 85.90665,-85.90665 c 2.12132,-2.12132 6.28172,-2.03908 4.1604,0.0822 l -86.48454,86.48454 c -2.12132,2.12132 1.78871,2.45392 3.91003,0.3326 l 86.77288,-86.77287 c 2.12132,-2.12132 6.34326,-2.10063 4.22194,0.0207 l -42.95806,42.95807 c -2.12132,2.12132 1.67178,2.57085 3.7931,0.44953 l 43.43163,-43.43162 c 2.12132,-2.12132 6.4174,-2.17476 4.29608,-0.0534 l -43.9346,43.9346 c -2.12132,2.12132 1.63146,2.61118 3.75278,0.48986 l 44.49951,-44.49952 c 2.12132,-2.12132 6.48017,-2.23752 4.35885,-0.1162 l -45.19061,45.19061 c -2.12132,2.12132 1.42382,2.81882 3.54514,0.6975 l 46.02687,-46.02687 c 2.12132,-2.12132 6.52538,-2.28274 4.40406,-0.16142 l -47.54927,47.54927 c -2.12132,2.12132 -0.26074,4.50338 1.86058,2.38206 l 50.13196,-50.13196 c 2.12132,-2.12132 6.59578,-2.35314 4.47446,-0.23182 l -52.81591,52.81592 c -2.12132,2.12132 -0.39123,4.63386 1.73009,2.51254 l 55.58835,-55.58834 c 2.12132,-2.12132 6.65319,-2.41055 4.53187,-0.28923 l -58.43763,58.43763 c -2.12132,2.12132 -0.48623,4.72886 1.63509,2.60754 l 61.39003,-61.39003 c 2.12132,-2.12132 6.73469,-2.49205 4.61337,-0.37073 l -64.42423,64.42424 c -2.12132,2.12132 -0.62112,4.86376 1.5002,2.74244 l 67.56954,-67.56954 c 2.12132,-2.12132 7.13216,-2.88953 5.01084,-0.76821 l -71.23607,71.23608 c -2.12132,2.12132 -1.0712,5.31383 1.05012,3.19251 l 74.59443,-74.59443 c 2.12132,-2.12132 6.88263,-2.63998 4.76131,-0.51866 l -78.66352,78.66352 c -2.12132,2.12132 -1.77311,6.01575 0.34821,3.89443 l 23.09474,-23.09474 m -196.17458,5.25575 -17.07547,17.07547 c -2.12132,2.12132 0.67267,3.56997 2.79399,1.44865 l 12.45999,-12.45999 c 2.12132,-2.12132 2.71442,1.52822 0.5931,3.64954 l -10.06847,10.06847 c -2.12132,2.12132 1.1073,3.13535 3.22862,1.01403 l 7.27357,-7.27357 c 2.12132,-2.12132 2.36363,1.879 0.24231,4.00033 l -5.08801,5.08801 c -0.47034,0.47034 4.2987,-0.0561 4.76904,-0.5264 l 0.35275,-0.35275 m 490.93321,-482.44793 8.81224,-8.81224 c 2.12132,-2.12132 5.81498,-1.57234 3.69366,0.54898 l -16.04268,16.04267 m -18.51492,18.51493 -49.46991,49.46991 c -2.12132,2.12132 -1.47894,5.72158 0.64238,3.60026 l 86.30215,-86.30215 c 2.12132,-2.12132 4.50554,-0.2629 2.38422,1.85842 l -88.179,88.179 c -2.12132,2.12132 -1.76549,6.00813 0.35583,3.88681 l 89.95641,-89.95641 c 2.12132,-2.12132 4.10321,0.13943 1.98189,2.26075 l -42.27009,42.27009 m -31.78181,31.78181 -17.67428,17.67428 c -2.12132,2.12132 -2.26577,6.50842 -0.14445,4.3871 l 14.23656,-14.23657 c 2.12132,-2.12132 2.38305,1.8596 0.26173,3.98092 l -14.39071,14.3907 c -2.12132,2.12132 -2.3386,6.58124 -0.21728,4.45992 l 15.19842,-15.19842 c 2.12132,-2.12132 2.87359,1.36905 0.75227,3.49037 l -16.35376,16.35377 c -2.12132,2.12132 -2.756,6.99863 -0.63468,4.87731 l 17.87396,-17.87396 c 2.12132,-2.12132 3.16146,1.08119 1.04014,3.20251 l -19.8346,19.8346 c -2.12132,2.12132 -4.04292,8.28556 -1.9216,6.16424 l 22.77251,-22.77251 c 2.12132,-2.12132 3.08313,1.15951 0.96181,3.28083 l -24.82108,24.82108 c -2.12132,2.12132 -4.53531,8.77794 -2.41399,6.65662 l 28.13979,-28.13978 c 2.12132,-2.12132 3.0005,1.24213 0.87918,3.36345 l -34.51334,34.51335 m 72.09722,-110.28099 34.61027,-34.61027 c 2.12132,-2.12132 3.87523,0.36742 1.75391,2.48874 l -27.97375,27.97374 c -2.12132,2.12132 3.98507,0.25758 6.10639,-1.86374 l 23.53128,-23.53129 c 2.12132,-2.12132 3.69494,0.54771 1.57362,2.66903 l -20.14042,20.14042 c -2.12132,2.12132 1.60676,2.63588 3.72808,0.51456 l 17.88899,-17.889 c 2.12132,-2.12132 3.48639,0.75626 1.36507,2.87758 l -15.62746,15.62746 c -2.12132,2.12132 1.79217,2.45046 3.91349,0.32914 l 12.89048,-12.89047 c 2.12132,-2.12132 3.07974,1.16289 0.95842,3.28422 l -9.69836,9.69836 c -2.12132,2.12132 2.70356,1.53908 4.82488,-0.58224 l 6.91466,-6.91466 M 254.13735,624.34408 243.45356,635.02787 M 538.6667,369.51321 502.88558,405.29433 c -2.12132,2.12132 1.03023,3.21241 3.15155,1.09109 l 42.54589,-42.54589 m 29.89528,-29.89528 43.16966,-43.16966 c 2.12132,-2.12132 2.93015,1.31249 0.80883,3.43381 L 508.61602,408.04916 c -2.12132,2.12132 0.29014,3.95251 2.41146,1.83119 L 623.24494,297.66289 c 2.12132,-2.12132 2.87247,1.37017 0.75115,3.49149 l -110.3507,110.3507 c -2.12132,2.12132 4.18532,0.0573 6.30664,-2.064 L 624.70424,304.68887 c 2.12132,-2.12132 2.79031,1.45233 0.66899,3.57365 l -99.34901,99.34901 c -2.12132,2.12132 3.53951,0.70313 5.66083,-1.41819 l 94.30379,-94.30379 c 2.12132,-2.12132 2.68222,1.56042 0.5609,3.68174 l -88.33147,88.33147 c -2.12132,2.12132 3.99193,0.25072 6.11325,-1.8706 l 82.79244,-82.79245 c 2.12132,-2.12132 2.78105,1.46159 0.65973,3.58291 l -77.33893,77.33894 c -2.12132,2.12132 3.99192,0.25072 6.11324,-1.8706 l 71.945,-71.94501 c 2.12132,-2.12132 3.47341,0.76923 1.35209,2.89055 l -67.18385,67.18385 c -2.12132,2.12132 3.99192,0.25072 6.11324,-1.8706 l 63.58356,-63.58356 c 2.12132,-2.12132 5.28382,-1.04117 3.16249,1.08015 l -60.61986,60.61987 c -2.12132,2.12132 4.02297,0.21967 6.14429,-1.90165 L 638.89351,332.926 c 2.12132,-2.12132 5.6812,-1.43855 3.55988,0.68277 l -55.8514,55.85139 c -2.12132,2.12132 4.66338,-0.42073 6.7847,-2.54206 l 52.86338,-52.86337 c 2.12132,-2.12132 5.99213,-1.7495 3.87081,0.37182 l -50.53956,50.53957 c -2.12132,2.12132 4.1029,0.13974 6.22422,-1.98158 l 48.96995,-48.96996 c 2.12132,-2.12132 8.1915,-3.94885 6.07018,-1.82753 l -48.76999,48.76998 c -2.12132,2.12132 4.20369,0.0389 6.32502,-2.08237 l 11.05257,-11.05257 c 2.12132,-2.12132 2.22861,2.01402 0.10729,4.13534 L 623.253,378.265 m -324.30564,256.42339 -28.15555,28.15555 c -2.12132,2.12132 -1.12436,5.367 0.99696,3.24568 l 19.49821,-19.49821 c 2.12132,-2.12132 -1.72911,5.97176 -3.85043,8.09308 l -19.18175,19.18175 m 246.42887,-242.18623 -0.43042,0.43041 c -0.57388,0.57389 -0.9558,5.19845 -0.38192,4.62456 l 5.66488,-5.66488 c 2.12132,-2.12132 8.39539,-4.15275 6.27407,-2.03143 l -11.23564,11.23565 c -2.12132,2.12132 -1.90282,6.14546 0.2185,4.02414 l 17.22322,-17.22322 c 2.12132,-2.12132 8.27015,-4.02752 6.14883,-1.9062 l -23.44191,23.44191 c -2.12132,2.12132 -2.16053,6.40317 -0.0392,4.28185 l 29.62996,-29.62995 c 2.12132,-2.12132 8.25759,-4.01495 6.13627,-1.89363 l -35.80176,35.80176 c -2.12132,2.12132 -2.13157,6.37421 -0.0103,4.25289 l 41.90301,-41.90301 c 2.12132,-2.12132 8.21231,-3.96967 6.09099,-1.84835 L 514.628,465.67676 c -2.12132,2.12132 -2.13156,6.3742 -0.0102,4.25288 l 54.4819,-54.4819 c 2.12132,-2.12132 7.79814,-3.5555 5.67682,-1.43418 l -60.16897,60.16897 c -2.12132,2.12132 -2.13157,6.37421 -0.0102,4.25289 l 66.22295,-66.22294 c 2.12132,-2.12132 8.16504,-3.92241 6.04372,-1.80109 l -72.27298,72.27298 c -2.12132,2.12132 -2.12132,6.36396 0,4.24264 L 592.887,408.63105 c 2.12132,-2.12132 8.10832,-3.86567 5.987,-1.74435 l -84.28296,84.28295 c -2.12132,2.12132 -2.12132,6.36396 0,4.24264 l 90.26995,-90.26994 c 2.12132,-2.12132 8.08498,-3.84234 5.96366,-1.72102 l -96.23361,96.2336 c -2.12132,2.12132 -2.12132,6.36396 0,4.24264 L 616.73375,401.75482 c 2.12132,-2.12132 7.93112,-3.68849 5.8098,-1.56716 L 514.59099,508.14022 c -2.12132,2.12132 -2.12132,6.36396 0,4.24264 L 625.76915,401.2047 c 2.12132,-2.12132 1.39953,2.84311 -0.72179,4.96443 L 514.59099,516.6255 c -2.12132,2.12132 -2.12132,6.36396 0,4.24264 L 624.00428,411.45485 c 2.12132,-2.12132 0.86202,3.38062 -1.2593,5.50195 L 514.59099,525.11078 c -2.12132,2.12132 -2.12132,6.36396 0,4.24264 L 621.35095,422.59346 c 2.12132,-2.12132 0.53776,3.70488 -1.58356,5.8262 L 516.53583,531.65122 c -2.12132,2.12132 1.058,3.18465 3.17932,1.06333 l 98.96966,-98.96967 c 2.12132,-2.12132 0.25933,3.98332 -1.86199,6.10464 l -93.92158,93.92158 c -2.12132,2.12132 1.09435,3.14829 3.21567,1.02697 l 91.19097,-91.19097 c 2.12132,-2.12132 4.6552,-0.41256 2.53388,1.70876 l -90.50818,90.50817 c -2.12132,2.12132 1.09535,3.14729 3.21668,1.02597 l 90.05496,-90.05496 c 2.12132,-2.12132 5.00387,-0.76123 2.88255,1.36009 l -7.56979,7.56979 c -2.12132,2.12132 1.50454,2.7381 3.62586,0.61678 l 6.89454,-6.89454 c 2.12132,-2.12132 5.12812,-0.88548 3.0068,1.23584 l -6.44575,6.44575 c -2.12132,2.12132 1.18333,3.05931 3.30465,0.93799 l 6.20193,-6.20193 c 2.12132,-2.12132 5.23396,-0.99132 3.11264,1.13 l -6.18087,6.18087 c -2.12132,2.12132 0.88492,3.35772 3.00624,1.2364 l 6.37956,-6.37955 c 2.12132,-2.12132 5.44187,-1.19923 3.32055,0.92209 l -6.8245,6.82449 c -2.12132,2.12132 0.59403,3.64861 2.71535,1.52729 l 7.91792,-7.91792 c 2.12132,-2.12132 7.60893,-3.36629 5.48761,-1.24497 l -10.83068,10.83069 c -2.12132,2.12132 0.29076,3.95188 2.41208,1.83056 l 15.85013,-15.85014 c 2.12132,-2.12132 7.38097,-3.13833 5.25965,-1.01701 l -18.90329,18.9033 c -2.12132,2.12132 -0.14137,4.38401 1.97995,2.26269 l 21.30391,-21.30391 c 2.12132,-2.12132 4.62874,-0.3861 2.50742,1.73522 l -22.08759,22.08758 c -2.12132,2.12132 -0.43682,4.67947 1.6845,2.55815 l 22.34016,-22.34016 c 2.12132,-2.12132 2.44782,1.79482 0.3265,3.91614 l -20.93165,20.93165 c -2.12132,2.12132 -0.29241,4.53505 1.82891,2.41372 l 18.55081,-18.5508 c 2.12132,-2.12132 0.82572,3.41692 -1.2956,5.53824 l -15.26885,15.26885 c -2.12132,2.12132 0.22425,4.0184 2.34557,1.89708 l 11.77829,-11.7783 c 2.12132,-2.12132 -1.45426,5.6969 -3.57558,7.81822 l -6.53945,6.53946 m -398.337,194.69023 21.53668,-21.53667 c 2.12132,-2.12132 0.93775,3.30489 -1.18357,5.42621 l -37.36155,37.36154 c -2.12132,2.12132 -1.00491,5.24756 1.11641,3.12624 l 34.53445,-34.53445 c 2.12132,-2.12132 0.97846,3.26417 -1.14286,5.38549 l -31.43989,31.4399 c -2.12132,2.12132 0.38464,3.858 2.50596,1.73668 l 28.36683,-28.36684 c 2.12132,-2.12132 1.75109,2.49156 -0.37023,4.61288 l -25.18868,25.18868 c -2.12132,2.12132 1.01143,3.23121 3.13275,1.10989 l 22.47861,-22.47861 c 2.12132,-2.12132 3.22627,1.01637 1.10495,3.13769 l -20.30669,20.30669 c -2.12132,2.12132 1.27252,2.97012 3.39384,0.8488 l 18.57066,-18.57066 c 2.12132,-2.12132 3.69907,0.54357 1.57775,2.66489 l -16.69757,16.69757 c -2.12132,2.12132 1.58875,2.65389 3.71007,0.53257 l 14.40659,-14.40659 c 2.12132,-2.12132 3.39732,0.84532 1.276,2.96665 l -11.73497,11.73496 c -2.12132,2.12132 1.99906,2.24359 4.12038,0.12227 l 8.70966,-8.70967 c 2.12132,-2.12132 2.76902,1.47363 0.6477,3.59495 l -5.16262,5.16261 c -1.74292,1.74293 3.10503,1.13761 4.84796,-0.60531 l 1.30719,-1.30719 m -34.53311,-24.86387 -9.02442,9.02442 M 682.24866,315.0267 641.54215,355.73321 c -2.12132,2.12132 4.08468,0.15796 6.206,-1.96336 l 41.92263,-41.92262 c 2.12132,-2.12132 6.73894,-2.49631 4.61762,-0.37499 l -41.02655,41.02656 c -2.12132,2.12132 1.94455,2.29808 4.06587,0.17676 l 40.77683,-40.77683 c 2.12132,-2.12132 5.34284,-1.10019 3.22152,1.02113 l -40.80543,40.80542 c -2.12132,2.12132 0.63534,3.6073 2.75666,1.48598 l 40.76334,-40.76334 c 2.12132,-2.12132 4.44386,-0.20122 2.32254,1.9201 l -40.53443,40.53444 c -2.12132,2.12132 0.33594,3.9067 2.45726,1.78538 l 40.07669,-40.0767 c 2.12132,-2.12132 3.84422,0.39842 1.7229,2.51974 l -39.41366,39.41366 c -2.12132,2.12132 0.2294,4.01324 2.35072,1.89192 l 38.54581,-38.5458 c 2.12132,-2.12132 3.38823,0.85441 1.26691,2.97573 l -37.47528,37.47527 c -2.12132,2.12132 0.22184,4.0208 2.34316,1.89948 l 36.28222,-36.28222 c 2.12132,-2.12132 2.88271,1.35994 0.76139,3.48126 l -34.69833,34.69833 c -2.12132,2.12132 0.27641,3.96623 2.39773,1.84491 l 32.97549,-32.9755 c 2.12132,-2.12132 2.59467,1.64798 0.47335,3.7693 l -30.99349,30.99349 c -2.12132,2.12132 0.41589,3.82675 2.53721,1.70543 l 28.76628,-28.76628 c 2.12132,-2.12132 2.44517,1.79747 0.32385,3.91879 l -26.39063,26.39063 c -2.12132,2.12132 0.82937,3.41327 2.95069,1.29195 l 22.91362,-22.91362 c 2.12132,-2.12132 1.40686,2.83578 -0.71446,4.9571 l -18.76386,18.76387 c -2.12132,2.12132 2.03477,2.20786 4.15609,0.0865 l 13.87093,-13.87092 c 2.12132,-2.12132 -1.54332,5.78596 -3.66464,7.90728 l -6.81122,6.81121 m -322.48195,246.11443 53.39749,-53.39749 c 2.12132,-2.12132 6.96312,-2.72049 4.8418,-0.59917 l -51.22516,51.22517 c -2.12133,2.12132 2.97589,1.26675 5.09721,-0.85457 l 50.99892,-50.99893 c 2.12132,-2.12132 7.01972,-2.77707 4.8984,-0.65575 l -51.03939,51.03938 c -2.12132,2.12132 2.72953,1.51312 4.85085,-0.6082 l 51.55127,-51.55128 c 2.12132,-2.12132 6.66184,-2.41919 4.54052,-0.29787 l -51.24095,51.24095 c -2.12132,2.12132 1.80668,2.43595 3.928,0.31463 l 52.30264,-52.30263 c 2.12132,-2.12132 7.5288,-3.28616 5.40748,-1.16484 l -55.14119,55.14119 c -2.12132,2.12132 0.4476,3.79504 2.56892,1.67372 l 57.23169,-57.23169 c 2.12132,-2.12132 7.18469,-2.94205 5.06337,-0.82073 l -59.77439,59.77439 c -2.12132,2.12132 0.2872,3.95544 2.40853,1.83412 l 62.81195,-62.81196 c 2.12132,-2.12132 6.90159,-2.65895 4.78027,-0.53763 l -65.30633,65.30633 c -2.12132,2.12132 0.0653,4.17733 2.18663,2.05601 l 68.56724,-68.56724 c 2.12132,-2.12132 8.00036,-3.75771 5.87904,-1.63639 l -72.368,72.36799 c -2.12132,2.12132 -0.13556,4.3782 1.98576,2.25688 l 80.2671,-80.2671 c 2.12132,-2.12132 5.33751,-1.09487 3.21619,1.02645 l -46.5224,46.52241 c -2.12132,2.12132 5.26356,-1.02092 7.38488,-3.14224 l 42.35371,-42.35372 c 2.12132,-2.12132 5.33751,-1.09487 3.21619,1.02645 l -38.13303,38.13303 m -115.47002,47.58777 -15.10858,15.10859 c -2.12132,2.12132 -2.10518,6.34782 0.0161,4.22649 l 10.81245,-10.81244 c 2.12132,-2.12132 0.9443,3.29833 -1.17702,5.41966 l -9.68564,9.68563 c -2.12132,2.12132 -2.54204,6.78469 -0.42072,4.66337 l 9.20178,-9.20178 c 2.12132,-2.12132 1.73795,2.50469 -0.38337,4.62601 l -13.45414,13.45414 m 14.36861,-10.12597 -23.51581,23.51581 c -2.12132,2.12132 -1.98694,6.22958 0.13438,4.10826 l 21.67416,-21.67416 c 2.12132,-2.12132 2.50659,1.73605 0.38527,3.85737 l -19.83477,19.83477 c -2.12132,2.12132 0.90532,3.33732 3.02664,1.216 l 17.8102,-17.8102 c 2.12132,-2.12132 3.77365,0.46899 1.65233,2.59032 l -15.87234,15.87233 c -2.12132,2.12132 1.66104,2.5816 3.78236,0.46028 L 364.505,687.92461 c 2.12132,-2.12132 4.03646,0.20618 1.91514,2.3275 L 354.486,702.18625 c -2.12132,2.12132 2.01782,2.22483 4.13914,0.10351 l 9.62734,-9.62735 c 2.12132,-2.12132 3.76325,0.4794 1.64193,2.60072 l -6.89637,6.89637 c -2.12132,2.12132 2.75953,1.48311 4.88085,-0.63821 l 4.68317,-4.68317 m 86.4655,-86.46551 -26.34332,26.34332 c -2.12132,2.12132 -0.32338,4.56603 1.79794,2.44471 l 21.16468,-21.16469 c 2.12132,-2.12132 0.29404,3.9486 -1.82728,6.06992 l -17.63173,17.63174 c -2.12132,2.12132 -0.50654,4.74918 1.61478,2.62786 l 15.6994,-15.6994 c 2.12132,-2.12132 2.29422,1.94842 0.1729,4.06974 l -14.34814,14.34814 c -2.12132,2.12132 -0.69277,4.93541 1.42855,2.81409 l 13.08879,-13.08879 c 2.12132,-2.12132 2.46445,1.77819 0.34313,3.89951 l -12.09131,12.09131 c -2.12132,2.12132 -0.89395,5.13659 1.22737,3.01527 l 11.30295,-11.30295 c 2.12132,-2.12132 2.64145,1.60119 0.52013,3.72251 l -10.69019,10.69019 c -2.12132,2.12132 -1.19747,5.44011 0.92385,3.31879 l 10.35832,-10.35831 c 2.12132,-2.12132 2.77975,1.46288 0.65843,3.5842 l -10.02887,10.02888 c -2.12132,2.12132 -1.35337,5.596 0.76795,3.47468 l 9.98344,-9.98343 c 2.12132,-2.12132 2.93001,1.31263 0.80868,3.43395 l -10.16931,10.16932 c -2.12132,2.12132 -1.67057,5.91321 0.45075,3.79189 l 10.56633,-10.56633 c 2.12132,-2.12132 3.06047,1.18217 0.93915,3.30349 l -11.45381,11.45381 c -2.12132,2.12132 -2.75139,6.99403 -0.63007,4.87271 l 13.11489,-13.11489 c 2.12132,-2.12132 3.26714,0.97549 1.14582,3.09681 l -17.15534,17.15535 c -2.12132,2.12132 -5.56294,9.80558 -3.44162,7.68426 l 21.94897,-21.94897 c 2.12132,-2.12132 3.82437,0.41827 1.70305,2.53959 l -25.53983,25.53983 c -2.12132,2.12131 -2.05454,6.29719 0.0668,4.17587 l 27.75649,-27.7565 c 2.12132,-2.12132 4.60495,-0.36231 2.48363,1.75901 l -29.01464,29.01464 c -2.12132,2.12132 0.0603,4.18233 2.18163,2.06101 l 29.38407,-29.38407 c 2.12132,-2.12132 4.75998,-0.51734 2.63866,1.60398 l -28.93937,28.93937 c -2.12132,2.12132 1.91835,2.3243 4.03967,0.20298 l 27.52597,-27.52598 c 2.12132,-2.12132 4.62925,-0.38661 2.50793,1.73471 l -25.53179,25.53179 c -2.12132,2.12132 3.37318,0.86946 5.4945,-1.25186 l 22.38962,-22.38961 c 2.12132,-2.12132 4.25672,-0.0141 2.1354,2.10723 l -19.49398,19.49399 c -2.12132,2.12132 4.23629,0.006 6.35761,-2.11497 l 14.90634,-14.90634 c 2.12132,-2.12132 3.14077,1.10186 1.01945,3.22318 L 475.84983,712.3443 M 606.67812,466.96472 535.7669,537.87593 c -2.12132,2.12132 1.10726,3.13539 3.22858,1.01406 l 62.02336,-62.02336 c 2.12132,-2.12132 -1.12373,5.36638 -3.24505,7.4877 l -55.54726,55.54726 c -2.12132,2.12132 1.10972,3.13291 3.23104,1.01159 l 47.88516,-47.88515 m -101.8218,97.57916 32.40701,-32.40702 c 2.12132,-2.12132 5.33751,-1.09487 3.21619,1.02645 l -24.50785,24.50786 c -2.12132,2.12132 2.65985,1.58279 4.78117,-0.53853 l 22.94287,-22.94287 c 2.12132,-2.12132 5.33751,-1.09487 3.21619,1.02645 l -23.16196,23.16195 c -2.12132,2.12132 0.80586,3.43678 2.92718,1.31546 l 25.04196,-25.04195 m 49.15051,-57.63579 -38.84558,38.84558 c -2.12132,2.12132 1.10973,3.13291 3.23105,1.01159 l 23.18418,-23.18418 c 2.12132,-2.12132 1.57628,2.66636 -0.54504,4.78768 l -4.50161,4.50161 c -2.12132,2.12132 0.0424,4.20028 2.16368,2.07896 l 4.41076,-4.41076 c 2.12132,-2.12132 4.31845,-0.0758 2.19713,2.04551 l -4.48383,4.48384 c -2.12132,2.12132 -0.1687,4.41133 1.95262,2.29001 l 4.81578,-4.81577 c 2.12132,-2.12132 4.4945,-0.25186 2.37318,1.86946 l -5.44466,5.44465 c -2.12132,2.12132 -0.61429,4.85693 1.50703,2.73561 l 6.45348,-6.45348 c 2.12132,-2.12132 5.43186,-1.18921 3.31054,0.93211 l -8.52746,8.52745 c -2.12132,2.12132 -1.20909,5.45174 0.91223,3.33042 l 11.32907,-11.32907 c 2.12132,-2.12132 5.86754,-1.6249 3.74622,0.49642 l -14.51125,14.51125 c -2.12132,2.12132 -1.5265,5.76914 0.59482,3.64782 l 17.60677,-17.60677 c 2.12132,-2.12132 5.53723,-1.29459 3.4159,0.82673 l -20.11891,20.11892 c -2.12132,2.12132 -0.75701,4.99964 1.36432,2.87832 l 21.6539,-21.6539 c 2.12132,-2.12132 4.21625,0.0264 2.09493,2.14771 l -21.67777,21.67777 c -2.12132,2.12132 0.83643,3.40621 2.95775,1.28489 l 19.28859,-19.28859 c 2.12132,-2.12132 -1.24844,5.49108 -3.36976,7.6124 l -10.7492,10.7492 m -40.25169,-14.90264 -39.30969,39.30969 c -2.12132,2.12132 -0.75534,4.99798 1.36598,2.87666 l 39.86174,-39.86174 c 2.12132,-2.12131 5.51344,-1.2708 3.39212,0.85052 L 518.111,593.7156 c -2.12132,2.12132 -0.70707,4.94972 1.41425,2.8284 l 44.02593,-44.02593 c 2.12132,-2.12132 5.03189,-0.78925 2.91057,1.33207 l -45.13063,45.13063 c -2.12132,2.12132 0.0374,4.2052 2.15875,2.08388 l 45.56621,-45.5662 c 2.12132,-2.12132 4.37683,-0.1342 2.25551,1.98712 l -45.24377,45.24377 c -2.12132,2.12132 1.08321,3.15943 3.20453,1.03811 l 43.93828,-43.93827 c 2.12132,-2.12132 3.59826,0.64438 1.47694,2.7657 l -41.57195,41.57194 c -2.12132,2.12132 2.01724,2.2254 4.13856,0.10408 l 38.0906,-38.09059 c 2.12132,-2.12132 1.96074,2.2819 -0.16058,4.40322 l -33.51724,33.51724 c -2.12132,2.12132 2.32329,1.91935 4.44461,-0.20197 L 573.943,576.06737 c 2.12132,-2.12132 -0.55325,4.79589 -2.67457,6.91721 l -23.23665,23.23665 c -2.12132,2.12132 -0.38842,4.63106 1.7329,2.50974 l 7.24245,-7.24245 c 2.12132,-2.12132 3.60501,0.63763 1.48369,2.75895 l -6.99179,6.9918 c -2.12132,2.12132 -0.44311,4.68574 1.67821,2.56442 l 6.92178,-6.92177 c 2.12132,-2.12132 3.80247,0.44016 1.68115,2.56148 l -7.0164,7.0164 c -2.12132,2.12132 -0.58841,4.83106 1.53291,2.70973 l 7.2224,-7.2224 c 2.12132,-2.12132 3.91962,0.32302 1.7983,2.44434 l -7.59479,7.59479 c -2.12132,2.12132 -0.86968,5.11233 1.25164,2.99101 l 8.21496,-8.21496 c 2.12132,-2.12132 4.12785,0.11478 2.00653,2.2361 l -9.21343,9.21344 c -2.12132,2.12132 -1.76323,6.00586 0.35809,3.88454 l 10.98765,-10.98764 c 2.12132,-2.12132 4.59062,-0.34799 2.4693,1.77333 L 559.938,636.74141 c -2.12132,2.12132 -2.70729,6.94993 -0.58597,4.82861 l 17.50524,-17.50524 c 2.12132,-2.12132 5.56429,-1.32164 3.44297,0.79968 l -21.41725,21.41725 c -2.12132,2.12132 -1.89425,6.13689 0.22707,4.01557 l 24.6714,-24.67141 c 2.12132,-2.12132 5.47042,-1.22777 3.3491,0.89355 l -27.18972,27.18972 c -2.12132,2.12132 -0.37449,4.61713 1.74683,2.49581 l 28.58176,-28.58175 c 2.12132,-2.12132 4.87195,-0.62932 2.75063,1.492 l -28.08762,28.08762 c -2.12132,2.12132 2.85701,1.38563 4.97833,-0.73569 l 25.31555,-25.31555 c 2.12132,-2.12132 3.27465,0.96799 1.15333,3.08931 l -21.4678,21.4678 m -89.29009,51.10632 1.82711,-1.8271 m 99.56339,-57.13698 9.81269,-9.8127"
       inkscape:connector-curvature="0" />
  </g>
</svg>
